{"glyphs":{"0":{"ha":574,"x_min":0,"x_max":0,"o":"m 49 740 l 49 232 b 285 -14 49 56 157 -14 b 524 232 413 -14 524 56 l 524 740 b 285 986 524 917 413 986 b 49 740 157 986 49 917 z m 132 808 b 286 978 132 936 208 978 b 440 808 364 978 440 936 l 440 163 b 286 -6 440 36 364 -6 b 132 163 208 -6 132 36 z "},"1":{"ha":332,"x_min":0,"x_max":0,"o":"m 247 0 l 247 972 l 54 972 l 54 964 l 163 964 l 164 961 l 164 0 z "},"2":{"ha":564,"x_min":0,"x_max":0,"o":"m 49 590 l 132 590 l 132 808 b 282 978 132 915 188 978 b 431 808 375 978 431 915 l 431 689 b 260 450 431 568 361 517 l 249 444 b 49 114 124 360 49 289 l 49 0 l 504 0 l 504 8 l 132 8 l 132 107 b 322 397 132 263 203 318 l 335 404 b 514 715 433 469 514 556 l 514 739 b 282 986 514 894 428 986 b 49 739 136 986 49 894 z "},"3":{"ha":574,"x_min":0,"x_max":0,"o":"m 440 808 l 440 678 b 251 490 440 546 386 490 l 215 490 l 215 482 l 251 482 b 440 297 392 482 440 432 l 440 164 b 286 -6 440 57 383 -6 b 132 164 190 -6 132 57 l 132 333 l 49 333 l 49 232 b 288 -14 49 78 138 -14 b 524 232 436 -14 524 78 l 524 257 b 335 486 524 394 472 468 l 335 489 b 524 718 471 508 524 585 l 524 740 b 288 986 524 894 436 986 b 49 740 138 986 49 894 l 49 639 l 132 639 l 132 808 b 286 978 132 915 190 978 b 440 808 383 978 440 915 z "},"4":{"ha":532,"x_min":0,"x_max":0,"o":"m 394 972 l 394 354 l 138 354 l 138 972 l 54 972 l 54 346 l 394 346 l 394 0 l 478 0 l 478 972 z "},"5":{"ha":563,"x_min":0,"x_max":0,"o":"m 60 451 l 143 451 l 143 493 b 297 597 175 561 239 597 b 431 443 367 597 431 549 l 431 164 b 286 -6 431 54 379 -6 b 133 164 190 -6 133 58 l 133 349 l 50 349 l 50 233 b 288 -14 50 79 139 -14 b 514 233 432 -14 514 75 l 514 401 b 325 615 514 547 421 615 b 144 514 257 615 186 581 l 142 514 l 142 964 l 486 964 l 486 972 l 60 972 z "},"6":{"ha":574,"x_min":0,"x_max":0,"o":"m 519 664 l 519 740 b 283 986 519 894 431 986 b 49 740 136 986 49 894 l 49 232 b 286 -14 49 78 136 -14 b 525 232 435 -14 525 78 l 525 381 b 324 608 525 522 443 608 b 135 503 243 608 169 568 l 132 503 l 132 806 b 285 978 132 914 189 978 b 436 808 379 978 436 915 l 436 664 z m 132 454 b 297 592 132 529 207 592 b 442 424 388 592 442 529 l 442 163 b 286 -6 442 57 383 -6 b 132 163 190 -6 132 57 z "},"7":{"ha":542,"x_min":0,"x_max":0,"o":"m 54 964 l 396 964 l 399 961 l 160 0 l 246 0 l 486 964 l 486 972 l 54 972 z "},"8":{"ha":583,"x_min":0,"x_max":0,"o":"m 54 743 l 54 724 b 219 514 54 614 119 536 l 219 511 b 49 281 113 492 49 413 l 49 232 b 290 -14 49 78 135 -14 b 535 232 447 -14 535 78 l 535 281 b 361 511 535 415 467 492 l 361 514 b 529 724 461 538 529 615 l 529 743 b 290 986 529 896 444 986 b 54 743 136 986 54 896 z m 138 808 b 292 978 138 917 194 978 b 446 808 390 978 446 917 l 446 675 b 292 517 446 578 386 517 b 138 675 197 517 138 578 z m 132 339 b 292 508 132 447 190 508 b 451 339 393 508 451 447 l 451 163 b 292 -6 451 57 392 -6 b 132 163 192 -6 132 57 z "},"9":{"ha":574,"x_min":0,"x_max":0,"o":"m 54 308 l 54 232 b 290 -14 54 78 143 -14 b 524 232 438 -14 524 76 l 524 739 b 288 986 524 894 436 986 b 49 739 139 986 49 894 l 49 592 b 250 364 49 450 131 364 b 438 468 329 364 403 404 l 440 468 l 440 167 b 289 -6 440 58 383 -6 b 138 163 194 -6 138 57 l 138 308 z m 440 518 b 275 381 440 443 365 381 b 132 549 186 381 132 443 l 132 808 b 286 978 132 915 190 978 b 440 810 383 978 440 915 z "},"\u0000":{"ha":0,"x_min":0,"x_max":0,"o":""},"\r":{"ha":347,"x_min":0,"x_max":0,"o":""}," ":{"ha":264,"x_min":0,"x_max":0,"o":""},"F":{"ha":417,"x_min":0,"x_max":0,"o":"m 394 964 l 394 972 l 54 972 l 54 0 l 138 0 l 138 481 l 382 481 l 382 489 l 138 489 l 138 964 z "},"G":{"ha":574,"x_min":0,"x_max":0,"o":"m 132 810 b 286 978 132 936 208 978 b 440 810 364 978 440 936 l 440 582 l 525 582 l 525 740 b 285 986 525 917 414 986 b 49 740 158 986 49 918 l 49 232 b 254 -14 49 64 150 -14 b 458 131 336 -14 419 35 l 461 131 l 461 0 l 525 0 l 525 490 l 285 490 l 285 482 l 440 482 l 440 229 b 271 -1 440 74 353 -1 b 132 167 199 -1 132 56 z "},"H":{"ha":544,"x_min":0,"x_max":0,"o":"m 408 972 l 408 503 l 139 503 l 139 972 l 56 972 l 56 0 l 139 0 l 139 494 l 408 494 l 408 0 l 492 0 l 492 972 z "},"I":{"ha":192,"x_min":0,"x_max":0,"o":"m 54 972 l 54 0 l 138 0 l 138 972 z "},"J":{"ha":511,"x_min":0,"x_max":0,"o":"m 374 972 l 374 163 b 238 -6 374 36 311 -6 b 96 163 164 -6 96 36 l 96 392 l 13 392 l 13 232 b 236 -14 13 56 111 -14 b 457 232 361 -14 457 56 l 457 972 z "},"K":{"ha":532,"x_min":0,"x_max":0,"o":"m 138 974 l 54 974 l 54 1 l 138 1 l 138 493 l 160 493 l 433 1 l 521 1 l 228 508 l 468 974 l 396 974 l 160 501 l 138 501 z "},"L":{"ha":406,"x_min":0,"x_max":0,"o":"m 56 972 l 56 0 l 396 0 l 396 8 l 139 8 l 139 972 z "},"M":{"ha":683,"x_min":0,"x_max":0,"o":"m 54 972 l 54 0 l 65 0 l 65 914 l 68 914 l 263 0 l 351 0 l 542 914 l 544 914 l 544 0 l 628 0 l 628 972 l 536 972 l 344 44 l 342 44 l 146 972 z "},"N":{"ha":549,"x_min":0,"x_max":0,"o":"m 486 972 l 486 31 l 483 31 l 143 972 l 54 972 l 54 0 l 63 0 l 63 950 l 65 950 l 406 0 l 494 0 l 494 972 z "},"O":{"ha":574,"x_min":0,"x_max":0,"o":"m 49 740 l 49 232 b 285 -14 49 56 157 -14 b 524 232 413 -14 524 56 l 524 740 b 285 986 524 917 413 986 b 49 740 157 986 49 917 z m 132 808 b 286 978 132 936 208 978 b 440 808 364 978 440 936 l 440 163 b 286 -6 440 36 364 -6 b 132 163 208 -6 132 36 z "},"P":{"ha":553,"x_min":0,"x_max":0,"o":"m 54 972 l 54 0 l 138 0 l 138 390 l 264 390 b 503 672 422 390 503 479 l 503 675 b 265 972 503 874 421 972 z m 138 964 l 264 964 b 419 756 368 964 419 894 l 419 597 b 264 399 419 464 368 399 l 138 399 z "},"Q":{"ha":574,"x_min":0,"x_max":0,"o":"m 49 739 l 49 232 b 254 -14 49 69 140 -3 l 254 -37 b 414 -181 254 -151 300 -181 l 468 -181 l 468 -172 l 433 -172 b 317 -53 342 -172 317 -150 l 317 -14 b 524 232 431 -3 524 69 l 524 739 b 285 986 524 915 414 986 b 49 739 158 986 49 917 z m 132 808 b 286 976 132 935 208 976 b 440 808 364 976 440 935 l 440 163 b 286 -7 440 36 364 -7 b 132 163 208 -7 132 36 z "},"R":{"ha":563,"x_min":0,"x_max":0,"o":"m 54 972 l 54 0 l 138 0 l 138 453 l 264 453 b 419 282 363 453 419 390 l 419 199 b 433 1 419 122 419 54 l 517 1 b 503 199 506 44 503 96 l 503 221 b 317 456 503 347 442 433 l 317 458 b 503 704 443 481 503 567 l 503 711 b 264 972 503 878 413 972 z m 138 964 l 264 964 b 419 781 363 964 419 897 l 419 643 b 264 461 419 528 363 461 l 138 461 z "},"S":{"ha":574,"x_min":0,"x_max":0,"o":"m 519 607 l 519 739 b 285 986 519 894 432 986 b 54 739 140 986 54 894 l 54 715 b 219 475 54 585 104 513 l 289 453 b 442 275 400 417 442 368 l 442 164 b 286 -6 442 57 383 -6 b 132 164 189 -6 132 57 l 132 365 l 49 365 l 49 233 b 285 -14 49 78 136 -14 b 525 233 435 -14 525 79 l 525 264 b 351 506 525 396 474 465 l 288 525 b 138 703 175 563 138 610 l 138 808 b 286 978 138 915 193 978 b 436 808 381 978 436 915 l 436 607 z "},"T":{"ha":461,"x_min":0,"x_max":0,"o":"m 450 972 l 13 972 l 13 964 l 189 964 l 189 0 l 272 0 l 272 964 l 450 964 z "},"U":{"ha":553,"x_min":0,"x_max":0,"o":"m 49 972 l 49 232 b 275 -14 49 56 151 -14 b 503 232 397 -14 503 56 l 503 972 l 419 972 l 419 163 b 275 -6 419 36 347 -6 b 132 163 203 -6 132 36 l 132 972 z "},"V":{"ha":519,"x_min":0,"x_max":0,"o":"m 11 972 l 217 0 l 290 0 l 507 972 l 496 972 l 290 82 l 288 82 l 94 972 z "},"W":{"ha":756,"x_min":0,"x_max":0,"o":"m 11 972 l 165 0 l 239 0 l 376 924 l 379 924 l 526 0 l 600 0 l 743 972 l 732 972 l 599 107 l 597 107 l 456 972 l 372 972 l 239 107 l 236 107 l 94 972 z "},"X":{"ha":503,"x_min":0,"x_max":0,"o":"m 107 972 l 22 972 l 210 496 l 11 0 l 22 0 l 215 479 l 218 479 l 404 0 l 490 0 l 293 518 l 478 972 l 467 972 l 286 535 l 283 535 z "},"Y":{"ha":444,"x_min":0,"x_max":0,"o":"m 11 972 l 179 315 l 179 0 l 263 0 l 263 315 l 432 972 l 421 972 l 258 349 l 256 349 l 96 972 z "},"Z":{"ha":497,"x_min":0,"x_max":0,"o":"m 46 972 l 46 964 l 372 964 l 372 961 l 28 8 l 28 0 l 469 0 l 469 8 l 115 8 l 114 11 l 461 964 l 461 972 z "},"a":{"ha":504,"x_min":0,"x_max":0,"o":"m 379 560 l 379 381 l 276 381 b 43 206 121 381 43 322 l 43 167 b 207 -14 43 57 108 -14 b 376 101 279 -14 339 25 l 379 101 l 379 0 l 460 0 l 460 494 b 257 721 460 631 378 721 b 54 494 135 721 54 631 l 54 432 l 135 432 l 135 560 b 257 714 135 651 185 714 b 379 560 329 714 379 651 z m 379 126 b 239 13 356 54 304 13 b 124 142 168 13 124 61 l 124 236 b 303 372 124 326 183 372 l 379 372 z "},"b":{"ha":508,"x_min":0,"x_max":0,"o":"m 49 0 l 129 0 l 129 107 l 132 107 b 297 -14 167 31 229 -14 b 464 200 394 -14 464 75 l 464 510 b 299 722 464 635 396 722 b 132 600 229 722 167 676 l 129 601 l 129 1000 l 49 1000 z m 129 574 b 267 696 150 646 207 696 b 385 539 335 696 385 629 l 385 164 b 267 13 385 76 335 13 b 129 132 207 13 150 61 z "},"c":{"ha":504,"x_min":0,"x_max":0,"o":"m 125 560 b 253 714 125 651 176 714 b 382 560 329 714 382 651 l 382 429 l 461 429 l 461 496 b 251 722 461 632 378 722 b 46 496 126 722 46 632 l 46 213 b 251 -14 46 76 128 -14 b 461 213 378 -14 461 76 l 461 278 l 382 278 l 382 147 b 253 -6 382 56 329 -6 b 125 147 176 -6 125 56 z "},"d":{"ha":504,"x_min":0,"x_max":0,"o":"m 460 0 l 460 1000 l 379 1000 l 379 618 l 376 618 b 217 722 344 683 286 722 b 44 514 117 722 44 642 l 44 206 b 210 -14 44 69 115 -14 b 376 99 279 -14 343 29 l 379 99 l 379 0 z m 379 122 b 246 10 360 57 306 10 b 125 160 175 10 125 72 l 125 551 b 249 703 125 640 176 703 b 379 594 308 703 360 658 z "},"e":{"ha":504,"x_min":0,"x_max":0,"o":"m 125 353 l 461 353 l 461 496 b 251 722 461 632 376 722 b 44 496 126 722 44 633 l 44 213 b 251 -14 44 76 126 -14 b 461 213 376 -14 461 76 l 461 268 l 381 268 l 381 149 b 253 -6 381 57 329 -6 b 125 149 176 -6 125 57 z m 125 561 b 253 715 125 653 176 715 b 381 561 329 715 381 653 l 381 361 l 125 361 z "},"f":{"ha":293,"x_min":0,"x_max":0,"o":"m 78 813 l 78 708 l 0 708 l 0 700 l 78 700 l 78 0 l 158 0 l 158 700 l 328 700 l 328 708 l 158 708 l 158 856 b 260 979 158 946 200 979 b 332 968 279 979 308 975 l 335 975 b 236 990 300 985 267 990 b 78 813 147 990 78 943 z "},"g":{"ha":504,"x_min":0,"x_max":0,"o":"m 460 708 l 379 708 l 379 590 l 376 590 b 204 722 335 674 272 722 b 43 510 111 722 43 633 l 43 201 b 206 -14 43 76 113 -14 b 376 118 272 -14 335 35 l 379 118 l 379 -129 b 257 -283 379 -222 329 -283 b 135 -132 183 -283 135 -222 l 135 -61 l 54 -61 l 54 -75 b 257 -292 54 -206 135 -292 b 460 -72 379 -292 460 -206 z m 379 565 l 379 144 b 236 13 353 67 294 13 b 124 164 174 13 124 78 l 124 544 b 238 696 124 631 174 696 b 379 565 294 696 353 642 z "},"h":{"ha":508,"x_min":0,"x_max":0,"o":"m 49 0 l 129 0 l 129 565 b 269 696 153 643 208 696 b 385 544 336 696 385 633 l 385 0 l 465 0 l 465 510 b 300 722 465 639 393 722 b 132 590 229 722 169 674 l 129 590 l 129 1000 l 49 1000 z "},"i":{"ha":203,"x_min":0,"x_max":0,"o":"m 43 886 b 101 831 43 851 64 831 b 161 886 140 831 161 851 b 101 942 161 919 140 942 b 43 886 64 942 43 921 z m 64 708 l 64 0 l 143 0 l 143 708 z "},"j":{"ha":203,"x_min":0,"x_max":0,"o":"m 43 886 b 101 831 43 851 64 831 b 161 886 139 831 161 851 b 101 942 161 921 139 942 b 43 886 64 942 43 921 z m 140 -110 l 140 708 l 61 708 l 61 -157 b -21 -282 61 -235 38 -282 b -75 -271 -36 -282 -53 -278 l -76 -279 b 7 -292 -46 -287 -18 -292 b 140 -110 93 -292 140 -236 z "},"k":{"ha":449,"x_min":0,"x_max":0,"o":"m 129 1001 l 50 1001 l 50 1 l 129 1 l 129 363 l 132 363 l 361 1 l 444 1 l 193 382 l 421 710 l 354 710 l 132 383 l 129 383 z "},"l":{"ha":189,"x_min":0,"x_max":0,"o":"m 54 0 l 135 0 l 135 1000 l 54 1000 z "},"m":{"ha":811,"x_min":0,"x_max":0,"o":"m 49 0 l 129 0 l 129 564 b 261 696 151 643 204 696 b 368 544 324 696 368 633 l 368 0 l 449 0 l 449 510 b 443 572 449 532 446 553 b 578 696 469 647 522 696 b 688 544 642 696 688 633 l 688 0 l 768 0 l 768 510 b 607 722 768 635 699 722 b 442 590 539 722 478 674 l 439 590 b 293 722 417 672 361 722 b 132 590 225 722 168 674 l 129 590 l 129 708 l 49 708 z "},"n":{"ha":508,"x_min":0,"x_max":0,"o":"m 49 0 l 129 0 l 129 565 b 269 696 151 643 207 696 b 385 544 336 696 385 633 l 385 0 l 465 0 l 465 510 b 300 722 465 639 393 722 b 131 590 229 722 168 674 l 129 590 l 129 708 l 49 708 z "},"o":{"ha":504,"x_min":0,"x_max":0,"o":"m 44 496 l 44 213 b 251 -14 44 78 124 -14 b 460 213 379 -14 460 79 l 460 496 b 251 722 460 629 379 722 b 44 496 124 722 44 629 z m 124 560 b 253 714 124 653 176 714 b 381 560 328 714 381 653 l 381 147 b 253 -6 381 56 329 -6 b 124 147 176 -6 124 56 z "},"p":{"ha":508,"x_min":0,"x_max":0,"o":"m 49 708 l 49 -289 l 129 -289 l 129 121 l 132 121 b 303 -14 172 36 235 -14 b 464 200 396 -14 464 76 l 464 507 b 303 722 464 631 396 722 b 132 586 235 722 174 672 l 129 588 l 129 708 z m 129 563 b 271 692 151 638 211 692 b 385 542 335 692 385 628 l 385 168 b 271 15 385 82 335 15 b 129 147 211 15 151 71 z "},"q":{"ha":504,"x_min":0,"x_max":0,"o":"m 460 708 l 379 708 l 379 588 l 376 586 b 204 722 332 672 271 722 b 44 507 113 722 44 631 l 44 200 b 204 -14 44 76 113 -14 b 376 121 271 -14 332 35 l 379 121 l 379 -289 l 460 -289 z m 379 147 b 238 15 354 71 294 15 b 125 168 174 15 125 82 l 125 542 b 238 692 125 628 174 692 b 379 563 296 692 354 639 z "},"r":{"ha":353,"x_min":0,"x_max":0,"o":"m 129 708 l 50 708 l 50 0 l 129 0 l 129 410 b 314 654 129 556 188 654 b 343 651 324 654 333 654 l 343 719 b 318 722 335 722 326 722 b 133 522 210 722 160 629 l 129 521 z "},"s":{"ha":504,"x_min":0,"x_max":0,"o":"m 456 443 l 456 500 b 251 722 456 632 378 722 b 50 521 129 722 50 636 l 50 514 b 190 343 50 424 96 369 l 264 321 b 381 194 351 299 381 268 l 381 128 b 251 -4 381 53 325 -4 b 126 149 175 -4 126 56 l 126 265 l 46 265 l 46 208 b 250 -14 46 78 125 -14 b 461 183 374 -14 461 75 l 461 199 b 311 372 461 293 415 343 l 242 394 b 131 515 161 415 131 447 l 131 579 b 251 714 131 661 178 714 b 375 561 329 714 375 657 l 375 443 z "},"t":{"ha":336,"x_min":0,"x_max":0,"o":"m 11 700 l 88 700 l 89 164 b 239 -14 89 31 156 -14 b 335 0 268 -14 299 -8 l 332 8 b 265 -4 306 0 285 -4 b 168 119 213 -4 168 28 l 168 700 l 328 700 l 328 708 l 168 708 l 168 865 l 89 860 l 89 708 l 11 708 z "},"u":{"ha":504,"x_min":0,"x_max":0,"o":"m 460 708 l 379 708 l 379 142 b 239 13 354 64 299 13 b 125 164 172 13 125 75 l 125 708 l 44 708 l 44 199 b 207 -14 44 69 115 -14 b 376 118 275 -14 336 35 l 379 118 l 379 0 l 460 0 z "},"v":{"ha":417,"x_min":0,"x_max":0,"o":"m 10 708 l 168 0 l 236 0 l 406 708 l 396 708 l 239 79 l 236 79 l 90 708 z "},"w":{"ha":738,"x_min":0,"x_max":0,"o":"m 10 708 l 153 0 l 221 0 l 367 672 l 369 672 l 504 0 l 574 0 l 728 708 l 717 708 l 575 90 l 572 90 l 443 708 l 363 708 l 222 90 l 219 90 l 90 708 z "},"x":{"ha":449,"x_min":0,"x_max":0,"o":"m 106 708 l 21 708 l 186 364 l 10 0 l 21 0 l 190 347 l 193 347 l 354 0 l 439 0 l 263 379 l 428 708 l 417 708 l 258 397 l 256 397 z "},"y":{"ha":508,"x_min":0,"x_max":0,"o":"m 465 708 l 385 708 l 385 144 b 243 13 360 65 304 13 b 131 164 178 13 131 75 l 131 708 l 50 708 l 50 199 b 211 -14 50 69 119 -14 b 382 118 281 -14 342 35 l 385 118 l 385 -129 b 263 -283 385 -222 336 -283 b 140 -132 190 -283 140 -222 l 140 -61 l 60 -61 l 60 -75 b 263 -292 60 -206 140 -292 b 465 -72 385 -292 465 -206 z "},"z":{"ha":451,"x_min":0,"x_max":0,"o":"m 418 0 l 418 8 l 118 8 l 117 11 l 400 700 l 400 708 l 49 708 l 49 700 l 314 700 l 315 697 l 33 8 l 33 0 z "},"$":{"ha":574,"x_min":0,"x_max":0,"o":"m 519 607 l 519 739 b 294 986 519 890 435 982 l 325 1110 l 249 1110 l 279 986 b 54 739 138 983 53 893 l 54 715 b 219 475 54 585 104 513 l 289 453 b 442 275 400 417 442 368 l 442 164 b 286 -6 442 57 383 -6 b 132 164 189 -6 132 57 l 132 365 l 49 365 l 49 233 b 279 -14 49 81 133 -11 l 249 -136 l 325 -136 l 294 -14 b 525 233 439 -10 525 82 l 525 264 b 351 506 525 396 474 465 l 288 525 b 138 703 175 563 138 610 l 138 808 b 286 978 138 915 193 978 b 436 808 381 978 436 915 l 436 607 z "},"¢":{"ha":504,"x_min":0,"x_max":0,"o":"m 125 560 b 253 714 125 651 176 714 b 382 560 329 714 382 651 l 382 429 l 461 429 l 461 496 b 271 721 461 624 386 713 l 301 846 l 226 846 l 256 722 b 46 496 119 722 46 626 l 46 213 b 256 -14 46 83 121 -17 l 226 -139 l 301 -139 l 271 -14 b 461 213 386 -4 461 83 l 461 278 l 382 278 l 382 147 b 253 -6 382 56 329 -6 b 125 147 176 -6 125 56 z "},"¥":{"ha":446,"x_min":0,"x_max":0,"o":"m 13 972 l 178 328 l 18 328 l 18 319 l 181 319 l 181 225 l 18 225 l 18 217 l 181 217 l 181 0 l 264 0 l 264 217 l 426 217 l 426 225 l 264 225 l 264 315 l 265 319 l 426 319 l 426 328 l 268 328 l 433 972 l 422 972 l 260 349 l 257 349 l 97 972 z "},"§":{"ha":536,"x_min":0,"x_max":0,"o":"m 486 690 l 486 743 b 267 986 486 896 403 986 b 50 765 135 986 50 901 l 50 736 b 147 554 50 639 82 586 b 50 369 83 517 50 449 l 50 331 b 203 138 50 229 100 165 l 283 115 b 411 -40 375 93 411 64 l 411 -132 b 268 -283 411 -222 354 -283 b 125 -111 182 -283 125 -225 l 125 4 l 44 4 l 44 -49 b 267 -292 44 -200 131 -292 b 492 -74 403 -292 492 -199 l 492 -39 b 394 144 492 61 460 113 b 492 322 458 182 492 247 l 492 368 b 329 564 492 476 439 535 l 253 586 b 131 739 164 607 131 639 l 131 822 b 267 978 131 925 183 978 b 406 806 354 978 406 921 l 406 690 z m 299 176 l 253 190 b 131 332 164 211 131 254 l 131 365 b 247 521 131 449 169 508 l 283 511 b 411 367 375 490 411 450 l 411 326 b 299 176 411 260 374 196 z "},"D":{"ha":563,"x_min":0,"x_max":0,"o":"m 54 972 l 54 0 l 276 0 b 514 239 404 0 514 65 l 514 732 b 276 972 514 906 404 972 z m 138 964 l 275 964 b 431 799 354 964 431 924 l 431 174 b 275 8 431 49 354 8 l 138 8 z "},"…":{"ha":553,"x_min":0,"x_max":0,"o":"m 60 51 b 117 -7 60 17 78 -7 b 174 51 154 -7 174 17 b 117 110 174 86 154 110 b 60 51 78 110 60 86 z m 219 51 b 276 -7 219 17 238 -7 b 333 51 314 -7 333 17 b 276 110 333 86 314 110 b 219 51 238 110 219 86 z m 379 51 b 436 -7 379 17 397 -7 b 493 51 474 -7 493 17 b 436 110 493 86 474 110 b 379 51 397 110 379 86 z "},"÷":{"ha":586,"x_min":0,"x_max":0,"o":"m 242 635 b 293 582 242 603 258 582 b 344 635 328 582 344 603 b 293 688 344 665 328 688 b 242 635 258 688 242 667 z m 526 476 l 60 476 l 60 468 l 526 468 z m 242 325 b 293 272 242 293 258 272 b 344 325 328 272 344 293 b 293 378 344 356 328 378 b 242 325 258 378 242 357 z "},"!":{"ha":278,"x_min":0,"x_max":0,"o":"m 97 972 l 97 854 l 135 139 l 143 139 l 181 854 l 181 972 z m 82 51 b 139 -7 82 17 101 -7 b 196 51 178 -7 196 17 b 139 110 196 86 178 110 b 82 51 101 110 82 86 z "},".":{"ha":233,"x_min":0,"x_max":0,"o":"m 60 51 b 117 -7 60 17 78 -7 b 174 51 154 -7 174 17 b 117 110 174 86 154 110 b 60 51 78 110 60 86 z "},",":{"ha":233,"x_min":0,"x_max":0,"o":"m 22 -154 l 40 -154 l 174 193 l 92 193 z "},":":{"ha":233,"x_min":0,"x_max":0,"o":"m 60 657 b 117 599 60 622 78 599 b 174 657 154 599 174 622 b 117 715 174 692 154 715 b 60 657 78 715 60 692 z m 60 51 b 117 -7 60 17 78 -7 b 174 51 154 -7 174 17 b 117 110 174 86 154 110 b 60 51 78 110 60 86 z "},"”":{"ha":371,"x_min":0,"x_max":0,"o":"m 218 606 l 228 606 l 310 1000 l 233 1000 z m 75 606 l 85 606 l 167 1000 l 90 1000 z "},"“":{"ha":371,"x_min":0,"x_max":0,"o":"m 151 1000 l 143 1000 l 60 606 l 136 606 z m 294 1000 l 286 1000 l 203 606 l 279 606 z "},"’":{"ha":226,"x_min":0,"x_max":0,"o":"m 75 606 l 85 606 l 167 1000 l 90 1000 z "},"‘":{"ha":226,"x_min":0,"x_max":0,"o":"m 151 1000 l 143 1000 l 60 606 l 136 606 z "},"?":{"ha":583,"x_min":0,"x_max":0,"o":"m 60 565 l 143 565 l 143 808 b 293 978 143 914 199 978 b 440 808 385 978 440 914 l 440 703 b 340 488 440 571 392 531 l 339 486 b 232 251 286 442 232 396 l 232 158 l 313 158 l 313 256 b 408 454 313 371 358 411 l 410 456 b 524 715 465 504 524 556 l 524 739 b 294 986 524 894 438 986 b 60 739 147 986 60 893 z m 215 51 b 272 -7 215 17 233 -7 b 329 51 310 -7 329 17 b 272 110 329 86 310 110 b 215 51 233 110 215 86 z "},"|":{"ha":203,"x_min":0,"x_max":0,"o":"m 143 -215 l 143 1000 l 60 1000 l 60 -215 z "},"/":{"ha":229,"x_min":0,"x_max":0,"o":"m 43 -111 l 196 1014 l 188 1014 l 33 -111 z "},"\\":{"ha":229,"x_min":0,"x_max":0,"o":"m 188 -111 l 196 -111 l 43 1014 l 33 1014 z "},"⁄":{"ha":313,"x_min":0,"x_max":0,"o":"m 251 1000 l 243 1000 l 60 0 l 68 0 z "},"<":{"ha":500,"x_min":0,"x_max":0,"o":"m 439 188 l 85 365 l 85 368 l 439 549 l 439 561 l 60 368 l 60 365 l 439 175 z "},">":{"ha":500,"x_min":0,"x_max":0,"o":"m 60 547 l 415 371 l 415 368 l 60 188 l 60 175 l 440 368 l 440 371 l 60 561 z "},"%":{"ha":933,"x_min":0,"x_max":0,"o":"m 44 760 l 44 643 b 226 417 44 510 93 417 b 408 643 360 417 408 510 l 408 760 b 225 986 408 893 360 986 b 44 760 92 986 44 894 z m 114 825 b 226 979 114 917 142 979 b 339 825 313 979 339 917 l 339 579 b 226 425 339 488 313 425 b 114 579 140 425 114 488 z m 256 0 l 268 0 l 685 972 l 672 972 z m 525 329 l 525 213 b 707 -14 525 79 574 -14 b 889 213 840 -14 889 79 l 889 329 b 706 556 889 463 840 556 b 525 329 572 556 525 464 z m 594 394 b 707 549 594 486 622 549 b 819 394 793 549 819 486 l 819 149 b 707 -6 819 57 793 -6 b 594 149 621 -6 594 57 z "},"‰":{"ha":1353,"x_min":0,"x_max":0,"o":"m 44 760 l 44 643 b 226 417 44 510 93 417 b 408 643 360 417 408 510 l 408 760 b 225 986 408 893 360 986 b 44 760 92 986 44 894 z m 114 825 b 226 979 114 917 142 979 b 339 825 313 979 339 917 l 339 579 b 226 425 339 488 313 425 b 114 579 140 425 114 488 z m 256 0 l 268 0 l 685 972 l 672 972 z m 525 329 l 525 213 b 707 -14 525 79 574 -14 b 889 213 840 -14 889 79 l 889 329 b 706 556 889 463 840 556 b 525 329 572 556 525 464 z m 946 329 l 946 213 b 1128 -14 946 79 994 -14 b 1310 213 1261 -14 1310 79 l 1310 329 b 1126 556 1310 463 1261 556 b 946 329 993 556 946 464 z m 594 394 b 707 549 594 486 622 549 b 819 394 793 549 819 486 l 819 149 b 707 -6 819 57 793 -6 b 594 149 621 -6 594 57 z m 1015 394 b 1128 549 1015 486 1043 549 b 1240 394 1214 549 1240 486 l 1240 149 b 1128 -6 1240 57 1214 -6 b 1015 149 1042 -6 1015 57 z "},"«":{"ha":783,"x_min":0,"x_max":0,"o":"m 456 113 l 72 365 l 72 368 l 454 624 l 449 633 l 60 374 l 60 360 l 450 103 z m 724 113 l 340 365 l 340 368 l 722 624 l 717 633 l 328 374 l 328 360 l 718 103 z "},"»":{"ha":783,"x_min":0,"x_max":0,"o":"m 326 624 l 710 371 l 710 368 l 328 113 l 333 103 l 722 363 l 722 376 l 332 633 z m 58 624 l 442 371 l 442 368 l 60 113 l 65 103 l 454 363 l 454 376 l 64 633 z "},"^":{"ha":400,"x_min":0,"x_max":0,"o":"m 340 653 l 201 972 l 199 972 l 60 653 l 72 653 l 199 944 l 201 944 l 328 653 z "},"*":{"ha":571,"x_min":0,"x_max":0,"o":"m 124 603 l 185 558 l 286 753 l 388 558 l 449 603 l 296 758 l 511 794 l 489 867 l 292 769 l 324 986 l 249 986 l 281 769 l 85 867 l 61 794 l 278 758 z "},"#":{"ha":618,"x_min":0,"x_max":0,"o":"m 151 0 l 214 0 l 235 372 l 371 372 l 349 0 l 411 0 l 432 372 l 558 372 l 558 381 l 433 381 l 444 593 l 558 593 l 558 601 l 446 601 l 467 974 l 404 974 l 383 601 l 249 601 l 269 974 l 207 974 l 186 601 l 60 601 l 60 593 l 186 593 l 174 381 l 60 381 l 60 372 l 174 372 z m 236 381 l 247 593 l 383 593 l 371 381 z "},"[":{"ha":328,"x_min":0,"x_max":0,"o":"m 268 -215 l 268 -207 l 143 -207 l 143 992 l 268 992 l 268 1000 l 60 1000 l 60 -215 z "},"]":{"ha":328,"x_min":0,"x_max":0,"o":"m 58 1000 l 58 992 l 183 992 l 183 -207 l 58 -207 l 58 -215 l 267 -215 l 267 1000 z "},"(":{"ha":290,"x_min":0,"x_max":0,"o":"m 221 -218 l 231 -215 b 128 392 163 -17 128 188 b 231 1000 128 596 163 800 l 221 1003 b 44 392 103 800 44 594 b 221 -218 44 188 103 -17 z "},")":{"ha":306,"x_min":0,"x_max":0,"o":"m 69 1003 l 60 1000 b 163 393 128 801 163 599 b 60 -215 163 189 128 -15 l 69 -218 b 246 393 188 -15 246 190 b 69 1003 246 597 188 801 z "},"{":{"ha":429,"x_min":0,"x_max":0,"o":"m 240 865 b 329 1006 240 974 258 1006 l 368 1006 l 368 1014 l 307 1014 b 157 819 203 1014 157 957 l 157 504 b 60 396 157 424 151 396 l 60 388 b 157 279 151 388 157 360 l 157 -33 b 307 -228 157 -171 203 -228 l 368 -228 l 368 -219 l 329 -219 b 240 -79 258 -219 240 -187 l 240 257 b 151 390 240 350 219 390 l 151 393 b 240 526 219 393 240 433 z "},"}":{"ha":429,"x_min":0,"x_max":0,"o":"m 189 -81 b 100 -221 189 -189 171 -221 l 60 -221 l 60 -229 l 122 -229 b 272 -35 226 -229 272 -172 l 272 281 b 369 389 272 361 278 389 l 369 397 b 272 506 278 397 272 426 l 272 818 b 122 1013 272 956 226 1013 l 60 1013 l 60 1004 l 100 1004 b 189 864 171 1004 189 972 l 189 528 b 278 396 189 435 210 396 l 278 393 b 189 258 210 393 189 353 z "},"@":{"ha":860,"x_min":0,"x_max":0,"o":"m 629 708 l 563 708 l 563 601 l 557 600 b 399 721 526 675 469 721 b 233 518 303 721 233 636 l 233 211 b 396 -14 233 76 300 -14 b 557 119 467 -14 526 36 l 563 119 l 563 103 b 688 -15 563 28 621 -15 b 817 131 757 -15 817 33 l 817 588 b 431 919 817 806 633 919 b 44 588 228 919 44 806 l 44 160 b 451 -208 44 -87 210 -208 l 451 -200 b 118 92 267 -200 118 -112 l 118 624 b 431 911 118 822 268 911 b 743 624 593 911 743 822 l 743 64 b 686 -7 743 18 715 -7 b 629 64 657 -7 629 18 z m 563 578 l 563 144 b 428 31 539 75 485 31 b 307 186 357 31 307 96 l 307 533 b 429 685 307 622 357 685 b 563 578 488 685 540 644 z "},"&":{"ha":636,"x_min":0,"x_max":0,"o":"m 132 808 b 286 978 132 915 189 978 b 440 808 383 978 440 915 l 440 679 l 525 679 l 525 739 b 285 986 525 893 435 986 b 49 739 136 986 49 894 l 49 713 b 204 488 49 592 94 507 l 204 485 b 49 258 94 464 49 379 l 49 232 b 253 -15 49 79 136 -15 b 458 133 343 -15 424 42 l 461 133 l 461 0 l 525 0 l 525 482 l 588 482 l 588 490 l 525 490 l 525 600 l 440 600 l 440 490 l 288 490 b 132 664 189 490 132 560 z m 440 482 l 440 228 b 271 -4 440 93 368 -4 b 132 165 189 -4 132 65 l 132 308 b 288 482 132 413 190 482 z "},"˜":{"ha":378,"x_min":0,"x_max":0,"o":"m 318 968 l 310 968 l 310 913 b 264 836 310 860 297 836 b 199 893 235 836 218 853 l 194 904 b 124 972 174 951 153 972 b 60 836 81 972 60 925 l 60 786 l 68 786 l 68 838 b 111 918 68 894 79 918 b 171 865 136 918 153 903 l 175 854 b 251 782 197 804 221 782 b 318 913 294 782 318 828 z "},"+":{"ha":635,"x_min":0,"x_max":0,"o":"m 574 475 l 321 475 l 321 728 l 313 728 l 313 475 l 58 475 l 58 467 l 313 467 l 313 213 l 321 213 l 321 467 l 574 467 z "},"-":{"ha":453,"x_min":0,"x_max":0,"o":"m 393 475 l 60 475 l 60 467 l 393 467 z "},"–":{"ha":786,"x_min":0,"x_max":0,"o":"m 789 475 l 60 475 l 60 467 l 789 467 z "},"—":{"ha":1119,"x_min":0,"x_max":0,"o":"m 1310 475 l 60 475 l 60 467 l 1310 467 z "},"_":{"ha":522,"x_min":0,"x_max":0,"o":"m 463 0 l 60 0 l 60 -8 l 463 -8 z "},"−":{"ha":586,"x_min":0,"x_max":0,"o":"m 526 482 l 60 482 l 60 474 l 526 474 z "},"=":{"ha":624,"x_min":0,"x_max":0,"o":"m 564 615 l 60 615 l 60 607 l 564 607 z m 564 335 l 60 335 l 60 326 l 564 326 z "},"•":{"ha":299,"x_min":0,"x_max":0,"o":"m 60 511 b 150 421 60 454 93 421 b 239 511 207 421 239 454 b 150 600 239 567 207 600 b 60 511 93 600 60 567 z "},"¿":{"ha":583,"x_min":0,"x_max":0,"o":"m 251 672 b 308 613 251 636 269 613 b 365 671 346 613 365 636 b 308 731 365 707 346 731 b 251 672 269 731 251 707 z m 524 129 l 440 129 l 440 -114 b 292 -282 440 -219 385 -282 b 143 -114 199 -282 143 -219 l 143 -8 b 243 207 143 124 192 164 l 244 208 b 353 443 299 253 353 300 l 353 549 l 272 549 l 272 440 b 175 240 272 324 225 283 l 174 239 b 60 -19 118 190 60 140 l 60 -44 b 290 -290 60 -200 146 -290 b 524 -44 436 -290 524 -199 z "},"¡":{"ha":279,"x_min":0,"x_max":0,"o":"m 82 671 b 139 613 82 636 100 613 b 196 671 176 613 196 636 b 139 729 196 706 176 729 b 82 671 100 729 82 706 z m 97 -278 l 181 -278 l 181 -160 l 144 569 l 136 569 l 97 -160 z "},"¶":{"ha":651,"x_min":0,"x_max":0,"o":"m 592 -215 l 592 1000 l 508 1000 l 508 -215 z m 393 -215 l 393 1000 l 310 1000 b 60 683 136 1000 60 968 b 310 365 60 397 136 365 l 310 -215 z "},"©":{"ha":914,"x_min":0,"x_max":0,"o":"m 61 549 l 61 433 b 451 -14 61 138 186 -14 b 853 431 719 -14 853 143 l 853 549 b 453 986 853 825 713 986 b 61 549 199 986 61 831 z m 125 601 b 456 978 125 846 243 978 b 789 601 671 978 789 846 l 789 379 b 453 -6 789 124 675 -6 b 125 381 233 -6 125 119 z m 324 658 b 457 813 324 756 372 813 b 590 658 542 813 590 756 l 590 546 l 667 546 l 667 592 b 457 819 667 733 601 819 b 247 592 313 819 247 735 l 247 381 b 457 153 247 238 317 153 b 667 381 597 153 667 239 l 667 428 l 590 428 l 590 315 b 457 161 590 217 542 161 b 324 315 372 161 324 217 z "},"¬":{"ha":778,"x_min":0,"x_max":0,"o":"m 60 0 l 718 0 l 718 972 l 60 972 z m 171 903 l 607 903 l 389 543 z m 424 486 l 649 857 l 649 115 z m 129 857 l 354 486 l 129 115 z m 389 429 l 607 69 l 171 69 z "},"®":{"ha":914,"x_min":0,"x_max":0,"o":"m 61 549 l 61 433 b 451 -14 61 138 188 -14 b 853 431 719 -14 853 143 l 853 549 b 453 986 853 825 713 986 b 61 549 199 986 61 831 z m 125 601 b 456 978 125 846 243 978 b 789 601 671 978 789 844 l 789 379 b 453 -6 789 124 675 -6 b 125 381 233 -6 125 119 z m 329 775 l 329 192 l 386 192 l 386 461 l 463 461 b 549 364 522 461 549 428 l 549 311 b 557 192 549 264 549 224 l 615 192 b 607 311 608 218 607 249 l 607 324 b 501 464 607 400 571 451 l 501 467 b 607 614 571 479 607 532 l 607 618 b 464 775 607 718 553 775 z m 386 767 l 463 767 b 549 665 522 767 549 735 l 549 575 b 463 468 549 506 522 468 l 386 468 z "},"™":{"ha":543,"x_min":0,"x_max":0,"o":"m 229 972 l 60 972 l 60 964 l 121 964 l 121 583 l 167 583 l 167 964 l 229 964 z m 256 972 l 256 583 l 264 583 l 264 950 l 267 950 l 324 583 l 378 583 l 435 950 l 438 950 l 438 583 l 483 583 l 483 972 l 429 972 l 371 601 l 368 601 l 311 972 z "},"×":{"ha":532,"x_min":0,"x_max":0,"o":"m 464 678 l 265 479 l 68 678 l 60 669 l 257 472 l 60 274 l 68 265 l 265 464 l 464 265 l 471 274 l 274 472 l 471 669 z "},"¦":{"ha":203,"x_min":0,"x_max":0,"o":"m 143 458 l 143 1000 l 60 1000 l 60 458 z m 143 -215 l 143 324 l 60 324 l 60 -215 z "},"†":{"ha":488,"x_min":0,"x_max":0,"o":"m 201 972 l 201 708 l 60 708 l 60 700 l 201 700 l 201 0 l 285 0 l 285 700 l 428 700 l 428 708 l 285 708 l 285 972 z "},"‡":{"ha":488,"x_min":0,"x_max":0,"o":"m 201 972 l 201 708 l 60 708 l 60 700 l 201 700 l 201 272 l 60 272 l 60 264 l 201 264 l 201 0 l 285 0 l 285 264 l 428 264 l 428 272 l 285 272 l 285 700 l 428 700 l 428 708 l 285 708 l 285 972 z "},"›":{"ha":515,"x_min":0,"x_max":0,"o":"m 60 624 l 443 371 l 443 368 l 60 113 l 65 103 l 456 363 l 456 376 l 65 633 z "},"‹":{"ha":515,"x_min":0,"x_max":0,"o":"m 454 113 l 72 365 l 72 368 l 454 624 l 449 633 l 60 374 l 60 360 l 449 103 z "},"€":{"ha":650,"x_min":0,"x_max":0,"o":"m 192 783 b 354 978 192 935 275 978 b 517 796 433 978 517 936 l 517 574 l 600 574 l 600 740 b 353 986 600 917 486 986 b 108 740 221 986 108 917 l 108 539 l 49 539 l 49 531 l 108 531 l 108 439 l 49 439 l 49 431 l 108 431 l 108 232 b 353 -15 108 56 221 -15 b 600 232 486 -15 600 56 l 600 399 l 517 399 l 517 176 b 354 -6 517 36 433 -6 b 192 186 275 -6 192 38 l 192 431 l 410 431 l 410 439 l 192 439 l 192 531 l 410 531 l 410 539 l 192 539 z "},"ˆ":{"ha":353,"x_min":0,"x_max":0,"o":"m 68 782 l 174 890 l 176 890 l 285 782 l 293 782 l 179 972 l 171 972 l 60 782 z "},"°":{"ha":369,"x_min":0,"x_max":0,"o":"m 60 883 l 60 742 b 182 610 60 665 100 610 b 308 742 265 610 308 665 l 308 883 b 182 1014 308 958 265 1014 b 60 883 100 1014 60 960 z m 111 922 b 185 1006 111 961 125 1006 b 257 922 243 1006 257 961 l 257 704 b 185 619 257 664 243 619 b 111 704 125 619 111 664 z "},"'":{"ha":186,"x_min":0,"x_max":0,"o":"m 126 1000 l 60 1000 l 60 976 l 89 624 l 97 624 l 126 976 z "},"\"":{"ha":321,"x_min":0,"x_max":0,"o":"m 126 1000 l 60 1000 l 60 976 l 89 624 l 97 624 l 126 976 z m 260 1000 l 193 1000 l 193 976 l 222 624 l 231 624 l 260 976 z "},"‚":{"ha":228,"x_min":0,"x_max":0,"o":"m 75 -168 l 85 -168 l 167 226 l 90 226 z "},"„":{"ha":371,"x_min":0,"x_max":0,"o":"m 75 -168 l 85 -168 l 167 226 l 90 226 z m 218 -168 l 228 -168 l 310 226 l 233 226 z "},"~":{"ha":549,"x_min":0,"x_max":0,"o":"m 488 558 l 478 558 l 478 540 b 401 431 478 467 446 431 b 292 492 360 431 326 460 l 285 499 b 167 564 249 532 214 564 b 61 399 103 564 61 507 l 61 381 l 71 381 l 71 399 b 146 508 71 476 100 508 b 260 447 190 508 225 479 l 267 440 b 383 374 301 407 338 374 b 488 540 446 374 488 429 z "},"´":{"ha":240,"x_min":0,"x_max":0,"o":"m 76 782 l 181 972 l 115 972 l 68 782 z "},"`":{"ha":240,"x_min":0,"x_max":0,"o":"m 174 782 l 126 972 l 60 972 l 165 782 z "},"¨":{"ha":389,"x_min":0,"x_max":0,"o":"m 61 879 b 113 826 61 849 75 826 b 164 879 150 826 164 849 b 113 932 164 910 150 932 b 61 879 75 932 61 910 z m 226 879 b 278 826 226 849 240 826 b 329 879 315 826 329 849 b 278 932 329 910 315 932 b 226 879 240 932 226 910 z "},"˚":{"ha":329,"x_min":0,"x_max":0,"o":"m 60 878 b 165 786 60 818 100 786 b 269 878 229 786 269 819 b 164 969 269 936 228 969 b 60 878 100 969 60 938 z m 74 878 b 164 957 74 929 108 957 b 256 878 219 957 256 929 b 165 799 256 826 221 799 b 74 878 108 799 74 826 z "},"ˇ":{"ha":353,"x_min":0,"x_max":0,"o":"m 285 972 l 179 865 l 176 865 l 68 972 l 60 972 l 174 782 l 182 782 l 293 972 z "},"˘":{"ha":410,"x_min":0,"x_max":0,"o":"m 60 972 b 206 782 60 854 107 782 b 350 972 303 782 350 854 l 342 972 b 204 829 342 897 306 829 b 68 972 103 829 68 897 z "},"˝":{"ha":351,"x_min":0,"x_max":0,"o":"m 72 782 l 169 972 l 114 972 l 64 782 z m 194 782 l 292 972 l 236 972 l 186 782 z "},"˙":{"ha":224,"x_min":0,"x_max":0,"o":"m 60 879 b 113 826 60 849 74 826 b 164 879 150 826 164 849 b 111 932 164 910 150 932 b 60 879 74 932 60 910 z "},"˛":{"ha":338,"x_min":0,"x_max":0,"o":"m 261 -8 b 61 -162 146 -8 61 -81 b 183 -265 61 -222 107 -265 b 278 -247 211 -265 243 -260 l 278 -240 b 208 -253 251 -249 226 -253 b 107 -156 149 -253 107 -208 b 261 -14 107 -86 181 -14 z "},"¸":{"ha":372,"x_min":0,"x_max":0,"o":"m 99 -64 b 263 -153 207 -64 263 -99 b 126 -256 263 -208 201 -256 b 60 -247 107 -256 83 -253 l 60 -256 b 142 -265 89 -262 115 -265 b 311 -154 239 -265 311 -215 b 108 -56 311 -96 242 -56 l 118 -7 l 110 -7 z "},"B":{"ha":550,"x_min":0,"x_max":0,"o":"m 54 972 l 54 0 l 265 0 b 518 246 428 0 518 88 l 518 256 b 310 494 518 392 453 474 l 310 497 b 493 724 440 521 493 594 l 493 731 b 254 972 493 888 408 972 z m 138 964 l 254 964 b 410 782 358 964 410 894 l 410 674 b 254 499 410 561 358 499 l 138 499 z m 138 490 l 260 490 b 431 310 372 490 431 425 l 431 194 b 264 8 431 79 375 8 l 138 8 z "},"C":{"ha":574,"x_min":0,"x_max":0,"o":"m 132 810 b 286 978 132 936 208 978 b 440 810 364 978 440 936 l 440 574 l 524 574 l 524 740 b 285 988 524 917 414 988 b 49 740 158 988 49 918 l 49 233 b 285 -14 49 56 158 -14 b 524 233 414 -14 524 57 l 524 400 l 440 400 l 440 164 b 286 -6 440 38 364 -6 b 132 164 208 -6 132 38 z "},"A":{"ha":519,"x_min":0,"x_max":0,"o":"m 228 972 l 13 0 l 22 0 l 104 351 l 347 351 l 424 0 l 507 0 l 301 972 z m 106 360 l 228 890 l 231 890 l 346 360 z "},"±":{"ha":618,"x_min":0,"x_max":0,"o":"m 557 474 l 314 474 l 314 713 l 306 713 l 306 474 l 63 474 l 63 465 l 306 465 l 306 225 l 314 225 l 314 465 l 557 465 z m 558 89 l 61 89 l 61 81 l 558 81 z "},"ı":{"ha":201,"x_min":0,"x_max":0,"o":"m 61 708 l 61 0 l 142 0 l 142 708 z "},"·":{"ha":235,"x_min":0,"x_max":0,"o":"m 60 518 b 117 460 60 483 78 460 b 174 518 154 460 174 483 b 117 576 174 553 154 576 b 60 518 78 576 60 553 z "},"ª":{"ha":397,"x_min":0,"x_max":0,"o":"m 281 907 l 281 797 l 197 797 b 61 690 118 797 61 763 l 61 667 b 167 558 61 604 104 558 b 276 626 214 558 254 583 l 281 626 l 281 567 l 338 567 l 338 864 b 201 1000 338 944 282 1000 b 67 864 122 1000 67 944 l 67 826 l 122 826 l 122 907 b 201 992 122 960 151 992 b 281 907 251 992 281 961 z m 281 642 b 188 576 267 603 229 576 b 117 647 144 576 117 603 l 117 708 b 213 789 117 761 151 789 l 281 789 z "},"£":{"ha":618,"x_min":0,"x_max":0,"o":"m 203 810 b 346 978 203 915 257 978 b 489 808 436 978 489 915 l 489 572 l 569 572 l 569 739 b 344 986 569 893 485 986 b 122 758 206 986 122 904 l 122 371 l 50 371 l 50 363 l 122 363 l 122 253 b 50 8 122 121 108 71 l 50 0 l 569 0 l 569 8 l 117 8 b 203 253 176 71 203 132 l 203 363 l 496 363 l 496 371 l 203 371 z "},"º":{"ha":389,"x_min":0,"x_max":0,"o":"m 60 864 l 60 694 b 194 558 60 614 111 558 b 329 694 276 558 329 614 l 329 864 b 194 1000 329 944 276 1000 b 60 864 111 1000 60 944 z m 115 901 b 194 992 115 956 147 992 b 274 901 242 992 274 956 l 274 656 b 194 567 274 603 242 567 b 115 656 147 567 115 603 z "},"¹":{"ha":213,"x_min":0,"x_max":0,"o":"m 153 572 l 153 986 l 60 986 l 60 979 l 96 979 l 99 976 l 99 572 z "},"²":{"ha":360,"x_min":0,"x_max":0,"o":"m 60 828 l 114 828 l 114 926 b 179 992 114 967 140 992 b 246 926 219 992 246 967 l 246 871 b 163 771 246 822 214 800 l 160 769 b 61 622 108 738 61 703 l 61 572 l 294 572 l 294 581 l 115 581 l 115 618 b 204 740 115 686 157 714 l 206 742 b 299 875 250 768 299 799 l 299 889 b 181 1000 299 951 251 1000 b 60 889 108 1000 60 951 z "},"³":{"ha":335,"x_min":0,"x_max":0,"o":"m 236 929 l 236 865 b 150 790 236 813 213 790 l 133 790 l 133 782 l 150 782 b 236 708 215 782 236 763 l 236 643 b 167 581 236 604 208 581 b 99 643 125 581 99 604 l 99 721 l 44 721 l 44 678 b 168 572 44 614 93 572 b 290 678 243 572 290 614 l 290 688 b 204 785 290 743 253 778 l 204 788 b 290 885 251 799 290 831 l 290 894 b 168 1000 290 958 243 1000 b 44 894 92 1000 44 958 l 44 851 l 99 851 l 99 929 b 167 992 99 968 125 992 b 236 929 208 992 236 968 z "},"¼":{"ha":518,"x_min":0,"x_max":0,"o":"m 311 1000 l 303 1000 l 119 0 l 128 0 z m 142 572 l 142 986 l 49 986 l 49 978 l 86 978 l 88 976 l 88 572 z m 439 414 l 439 157 l 329 157 l 329 414 l 275 414 l 275 149 l 439 149 l 439 0 l 493 0 l 493 414 z "},"¾":{"ha":682,"x_min":0,"x_max":0,"o":"m 451 1000 l 443 1000 l 260 0 l 268 0 z m 253 865 b 165 790 253 813 228 790 l 149 790 l 149 782 l 165 782 b 253 708 231 782 253 763 l 253 643 b 182 581 253 604 225 581 b 114 643 140 581 114 604 l 114 721 l 60 721 l 60 678 b 183 572 60 614 107 572 b 306 678 260 572 306 614 l 306 688 b 219 785 306 743 269 778 l 219 788 b 306 885 268 799 306 831 l 306 894 b 183 1000 306 958 260 1000 b 60 894 107 1000 60 958 l 60 851 l 114 851 l 114 929 b 182 992 114 968 140 992 b 253 929 225 992 253 968 z m 568 414 l 568 157 l 458 157 l 458 414 l 404 414 l 404 149 l 568 149 l 568 0 l 622 0 l 622 414 z "},"½":{"ha":563,"x_min":0,"x_max":0,"o":"m 322 1000 l 314 1000 l 131 0 l 139 0 z m 153 572 l 153 986 l 60 986 l 60 978 l 96 978 l 99 976 l 99 572 z m 263 256 l 317 256 l 317 354 b 382 419 317 394 343 419 b 449 354 422 419 449 394 l 449 299 b 365 199 449 251 417 229 l 363 197 b 264 49 311 165 264 131 l 264 0 l 497 0 l 497 8 l 318 8 l 318 46 b 407 168 318 114 360 142 l 408 169 b 501 303 451 196 501 226 l 501 318 b 383 428 501 379 454 428 b 263 318 311 428 263 379 z "},"¯":{"ha":393,"x_min":0,"x_max":0,"o":"m 335 879 l 60 879 l 60 871 l 335 871 z "},"E":{"ha":433,"x_min":0,"x_max":0,"o":"m 394 964 l 394 972 l 54 972 l 54 0 l 406 0 l 406 8 l 138 8 l 138 499 l 385 499 l 385 507 l 138 507 l 138 964 z "},";":{"ha":233,"x_min":0,"x_max":0,"o":"m 60 660 b 117 601 60 624 78 601 b 174 658 154 601 174 624 b 117 718 174 694 154 718 b 60 660 78 718 60 694 z m 22 -154 l 39 -154 l 174 193 l 92 193 z "},"ƒ":{"ha":479,"x_min":0,"x_max":0,"o":"m 186 813 l 186 708 l 110 708 l 110 700 l 186 700 l 186 -158 b 78 -281 186 -249 140 -281 b 1 -269 57 -281 25 -278 l -1 -278 b 100 -292 35 -286 68 -292 b 267 -114 194 -292 267 -246 l 267 700 l 447 700 l 447 708 l 267 708 l 267 856 b 375 979 267 946 311 979 b 451 968 396 979 428 975 l 454 975 b 353 990 418 985 385 990 b 186 813 260 990 186 943 z "},"⁴":{"ha":339,"x_min":0,"x_max":0,"o":"m 224 986 l 224 731 l 115 731 l 115 986 l 60 986 l 60 721 l 224 721 l 224 572 l 279 572 l 279 986 z "},"μ":{"ha":778,"x_min":0,"x_max":0,"o":"m 60 0 l 718 0 l 718 972 l 60 972 z m 171 903 l 607 903 l 389 543 z m 424 486 l 649 857 l 649 115 z m 129 857 l 354 486 l 129 115 z m 389 429 l 607 69 l 171 69 z "},"ð":{"ha":504,"x_min":0,"x_max":0,"o":"m 44 499 l 44 204 b 250 -14 44 75 125 -14 b 461 213 379 -14 461 79 l 461 496 b 294 896 461 676 408 806 l 397 971 l 392 978 l 288 900 b 88 1000 235 942 168 974 l 83 993 b 267 885 160 965 219 929 l 144 794 l 149 788 l 272 879 b 396 618 340 810 378 724 l 394 617 b 240 724 368 686 313 724 b 44 499 131 724 44 639 z m 125 558 b 253 714 125 651 176 714 b 381 558 329 714 381 651 l 381 147 b 253 -6 381 56 329 -6 b 125 147 176 -6 125 56 z "},"ß":{"ha":550,"x_min":0,"x_max":0,"o":"m 54 0 l 138 0 l 138 803 b 267 964 138 918 192 964 l 278 964 b 414 793 381 964 414 907 l 414 672 b 258 500 414 558 363 500 l 235 500 l 235 490 l 265 490 b 435 311 376 490 435 426 l 435 188 b 268 8 435 69 379 8 l 225 8 l 225 0 l 269 0 b 518 247 431 0 518 88 l 518 256 b 343 494 518 393 453 475 l 343 497 b 493 724 440 522 493 596 l 493 731 b 275 972 493 888 431 972 l 260 972 b 54 739 129 972 54 896 z "},"¤":{"ha":778,"x_min":0,"x_max":0,"o":"m 60 0 l 718 0 l 718 972 l 60 972 z m 171 903 l 607 903 l 389 543 z m 424 486 l 649 857 l 649 115 z m 129 857 l 354 486 l 129 115 z m 389 429 l 607 69 l 171 69 z "},"À":{"ha":519,"x_min":0,"x_max":0,"o":"m 275 1028 l 228 1218 l 161 1218 l 267 1028 z m 228 972 l 13 0 l 22 0 l 104 351 l 347 351 l 424 0 l 507 0 l 301 972 z m 106 360 l 228 890 l 231 890 l 346 360 z "},"Á":{"ha":519,"x_min":0,"x_max":0,"o":"m 253 1028 l 357 1218 l 292 1218 l 244 1028 z m 228 972 l 13 0 l 22 0 l 104 351 l 347 351 l 424 0 l 507 0 l 301 972 z m 106 360 l 228 890 l 231 890 l 346 360 z "},"Â":{"ha":519,"x_min":0,"x_max":0,"o":"m 151 1029 l 257 1138 l 260 1138 l 368 1029 l 376 1029 l 263 1219 l 254 1219 l 143 1029 z m 228 972 l 13 0 l 22 0 l 104 351 l 347 351 l 424 0 l 507 0 l 301 972 z m 106 360 l 228 890 l 231 890 l 346 360 z "},"Ã":{"ha":519,"x_min":0,"x_max":0,"o":"m 389 1214 l 381 1214 l 381 1158 b 335 1082 381 1106 368 1082 b 269 1139 307 1082 289 1099 l 265 1150 b 194 1218 244 1197 224 1218 b 131 1082 151 1218 131 1171 l 131 1032 l 139 1032 l 139 1083 b 182 1164 139 1140 150 1164 b 242 1111 207 1164 224 1149 l 246 1101 b 322 1028 268 1050 292 1028 b 389 1158 365 1028 389 1074 z m 228 972 l 13 0 l 22 0 l 104 351 l 347 351 l 424 0 l 507 0 l 301 972 z m 106 360 l 228 890 l 231 890 l 346 360 z "},"Ä":{"ha":519,"x_min":0,"x_max":0,"o":"m 124 1125 b 175 1072 124 1094 138 1072 b 228 1125 213 1072 228 1094 b 175 1178 228 1156 213 1178 b 124 1125 138 1178 124 1156 z m 290 1125 b 342 1072 290 1094 304 1072 b 394 1125 379 1072 394 1094 b 342 1178 394 1156 379 1178 b 290 1125 304 1178 290 1156 z m 228 972 l 13 0 l 22 0 l 104 351 l 347 351 l 424 0 l 507 0 l 301 972 z m 106 360 l 228 890 l 231 890 l 346 360 z "},"Å":{"ha":519,"x_min":0,"x_max":0,"o":"m 156 1124 b 260 1032 156 1063 196 1032 b 365 1124 325 1032 365 1064 b 258 1215 365 1182 324 1215 b 156 1124 196 1215 156 1183 z m 168 1124 b 258 1203 168 1175 203 1203 b 351 1124 315 1203 351 1175 b 260 1043 351 1072 317 1043 b 168 1124 203 1043 168 1071 z m 228 972 l 11 0 l 22 0 l 103 351 l 347 351 l 425 0 l 508 0 l 301 972 z m 106 360 l 228 890 l 231 890 l 346 360 z "},"Æ":{"ha":793,"x_min":0,"x_max":0,"o":"m 754 964 l 754 972 l 407 972 l 13 0 l 22 0 l 167 351 l 414 351 l 414 0 l 765 0 l 765 8 l 497 8 l 497 499 l 744 499 l 744 507 l 497 507 l 497 964 z m 171 360 l 413 946 l 414 946 l 414 360 z "},"Ç":{"ha":574,"x_min":0,"x_max":0,"o":"m 132 810 b 286 978 132 936 208 978 b 440 810 364 978 440 936 l 440 574 l 524 574 l 524 740 b 285 988 524 917 413 988 b 49 740 158 988 49 918 l 49 233 b 281 -14 49 58 156 -12 l 271 -64 b 435 -153 379 -64 435 -99 b 299 -256 435 -208 374 -256 b 232 -247 279 -256 256 -253 l 232 -256 b 314 -265 261 -262 289 -265 b 483 -154 411 -265 483 -215 b 281 -56 483 -96 414 -56 l 289 -14 b 524 233 415 -11 524 58 l 524 400 l 440 400 l 440 164 b 286 -6 440 38 364 -6 b 132 164 208 -6 132 38 z "},"Ð":{"ha":579,"x_min":0,"x_max":0,"o":"m 71 972 l 71 489 l 13 489 l 13 481 l 71 481 l 71 0 l 293 0 b 531 239 419 0 531 65 l 531 732 b 293 972 531 906 419 972 z m 154 963 l 292 963 b 447 797 371 963 447 922 l 447 174 b 292 8 447 49 371 8 l 154 8 l 154 481 l 274 481 l 274 489 l 154 489 z "},"Đ":{"ha":579,"x_min":0,"x_max":0,"o":"m 71 972 l 71 489 l 13 489 l 13 481 l 71 481 l 71 0 l 293 0 b 531 239 419 0 531 65 l 531 732 b 293 972 531 906 419 972 z m 154 963 l 292 963 b 447 797 371 963 447 922 l 447 174 b 292 8 447 49 371 8 l 154 8 l 154 481 l 274 481 l 274 489 l 154 489 z "},"È":{"ha":433,"x_min":0,"x_max":0,"o":"m 246 1028 l 199 1218 l 132 1218 l 238 1028 z m 394 964 l 394 972 l 54 972 l 54 0 l 406 0 l 406 8 l 138 8 l 138 499 l 385 499 l 385 507 l 138 507 l 138 964 z "},"É":{"ha":433,"x_min":0,"x_max":0,"o":"m 224 1028 l 328 1218 l 263 1218 l 215 1028 z m 394 964 l 394 972 l 54 972 l 54 0 l 406 0 l 406 8 l 138 8 l 138 499 l 385 499 l 385 507 l 138 507 l 138 964 z "},"Ê":{"ha":433,"x_min":0,"x_max":0,"o":"m 121 1029 l 226 1138 l 229 1138 l 338 1029 l 346 1029 l 232 1219 l 224 1219 l 113 1029 z m 394 964 l 394 972 l 54 972 l 54 0 l 406 0 l 406 8 l 138 8 l 138 499 l 385 499 l 385 507 l 138 507 l 138 964 z "},"Ë":{"ha":433,"x_min":0,"x_max":0,"o":"m 94 1125 b 146 1072 94 1094 108 1072 b 197 1125 183 1072 197 1094 b 146 1178 197 1156 183 1178 b 94 1125 108 1178 94 1156 z m 260 1125 b 311 1072 260 1094 274 1072 b 363 1125 349 1072 363 1094 b 311 1178 363 1156 349 1178 b 260 1125 274 1178 260 1156 z m 396 964 l 396 972 l 54 972 l 54 0 l 406 0 l 406 8 l 138 8 l 138 499 l 385 499 l 385 507 l 138 507 l 138 964 z "},"Ì":{"ha":192,"x_min":0,"x_max":0,"o":"m 111 1028 l 64 1218 l -3 1218 l 103 1028 z m 54 972 l 54 0 l 138 0 l 138 972 z "},"Í":{"ha":192,"x_min":0,"x_max":0,"o":"m 89 1028 l 193 1218 l 128 1218 l 81 1028 z m 54 972 l 54 0 l 138 0 l 138 972 z "},"Î":{"ha":192,"x_min":0,"x_max":0,"o":"m -14 1029 l 93 1138 l 96 1138 l 204 1029 l 213 1029 l 99 1219 l 90 1219 l -22 1029 z m 54 972 l 54 0 l 138 0 l 138 972 z "},"Ï":{"ha":192,"x_min":0,"x_max":0,"o":"m -40 1125 b 13 1072 -40 1094 -26 1072 b 63 1125 49 1072 63 1094 b 11 1178 63 1156 49 1178 b -40 1125 -26 1178 -40 1156 z m 126 1125 b 179 1072 126 1094 140 1072 b 229 1125 215 1072 229 1094 b 178 1178 229 1156 215 1178 b 126 1125 140 1178 126 1156 z m 54 972 l 54 0 l 138 0 l 138 972 z "},"Ł":{"ha":406,"x_min":0,"x_max":0,"o":"m 56 972 l 56 496 l -28 467 l -24 456 l 56 485 l 56 0 l 396 0 l 396 8 l 139 8 l 139 514 l 260 558 l 256 569 l 139 526 l 139 972 z "},"Ñ":{"ha":549,"x_min":0,"x_max":0,"o":"m 404 1214 l 396 1214 l 396 1158 b 349 1082 396 1106 382 1082 b 285 1139 321 1082 303 1099 l 279 1150 b 208 1218 260 1197 238 1218 b 146 1082 165 1218 146 1171 l 146 1032 l 153 1032 l 153 1083 b 196 1164 153 1140 165 1164 b 256 1111 222 1164 238 1149 l 261 1101 b 336 1028 283 1050 306 1028 b 404 1158 379 1028 404 1074 z m 486 972 l 486 29 l 483 29 l 144 972 l 56 972 l 56 0 l 64 0 l 64 950 l 67 950 l 407 0 l 494 0 l 494 972 z "},"Ò":{"ha":574,"x_min":0,"x_max":0,"o":"m 303 1028 l 256 1218 l 189 1218 l 294 1028 z m 49 740 l 49 232 b 285 -14 49 56 157 -14 b 524 232 413 -14 524 56 l 524 740 b 285 986 524 917 413 986 b 49 740 157 986 49 917 z m 132 808 b 286 978 132 936 208 978 b 440 808 364 978 440 936 l 440 163 b 286 -6 440 36 364 -6 b 132 163 208 -6 132 36 z "},"Ó":{"ha":574,"x_min":0,"x_max":0,"o":"m 279 1028 l 385 1218 l 318 1218 l 271 1028 z m 49 740 l 49 232 b 285 -14 49 56 157 -14 b 524 232 413 -14 524 56 l 524 740 b 285 986 524 917 413 986 b 49 740 157 986 49 917 z m 132 808 b 286 978 132 936 208 978 b 440 808 364 978 440 936 l 440 163 b 286 -6 440 36 364 -6 b 132 163 208 -6 132 36 z "},"Ô":{"ha":574,"x_min":0,"x_max":0,"o":"m 176 1029 l 283 1138 l 286 1138 l 394 1029 l 403 1029 l 289 1219 l 281 1219 l 168 1029 z m 49 740 l 49 233 b 285 -14 49 56 157 -14 b 524 233 413 -14 524 56 l 524 740 b 285 986 524 917 413 986 b 49 740 157 986 49 917 z m 132 810 b 286 978 132 936 208 978 b 440 810 364 978 440 936 l 440 164 b 286 -6 440 38 364 -6 b 132 164 208 -6 132 38 z "},"Õ":{"ha":574,"x_min":0,"x_max":0,"o":"m 415 1214 l 407 1214 l 407 1158 b 360 1082 407 1106 394 1082 b 296 1139 332 1082 315 1099 l 292 1150 b 221 1218 271 1197 249 1218 b 157 1082 176 1218 157 1171 l 157 1032 l 165 1032 l 165 1083 b 208 1164 165 1140 176 1164 b 268 1111 233 1164 250 1149 l 272 1101 b 347 1028 294 1050 317 1028 b 415 1158 390 1028 415 1074 z m 49 739 l 49 232 b 285 -15 49 56 157 -15 b 524 232 413 -15 524 56 l 524 739 b 285 986 524 915 413 986 b 49 739 157 986 49 917 z m 132 808 b 286 978 132 935 208 978 b 440 808 364 978 440 935 l 440 163 b 286 -6 440 36 364 -6 b 132 163 208 -6 132 36 z "},"Ö":{"ha":574,"x_min":0,"x_max":0,"o":"m 150 1125 b 201 1072 150 1094 164 1072 b 253 1125 239 1072 253 1094 b 201 1178 253 1156 239 1178 b 150 1125 164 1178 150 1156 z m 317 1125 b 368 1072 317 1094 331 1072 b 419 1125 406 1072 419 1094 b 368 1178 419 1156 406 1178 b 317 1125 331 1178 317 1156 z m 49 740 l 49 233 b 285 -14 49 56 157 -14 b 525 233 414 -14 525 56 l 525 740 b 285 986 525 917 414 986 b 49 740 157 986 49 917 z m 132 810 b 286 978 132 936 208 978 b 440 810 364 978 440 936 l 440 164 b 286 -6 440 38 364 -6 b 132 164 208 -6 132 38 z "},"Ø":{"ha":574,"x_min":0,"x_max":0,"o":"m 49 740 l 49 232 b 89 76 49 167 64 115 l 49 -10 l 58 -14 l 96 67 b 285 -14 140 10 210 -14 b 524 232 413 -14 524 56 l 524 740 b 483 893 524 804 508 856 l 525 982 l 514 986 l 476 903 b 285 986 432 961 361 986 b 49 740 157 986 49 917 z m 132 808 b 286 978 132 936 208 978 b 439 826 360 978 433 939 l 132 168 z m 440 801 l 440 163 b 286 -6 440 36 364 -6 b 132 143 213 -6 140 32 z "},"Œ":{"ha":769,"x_min":0,"x_max":0,"o":"m 731 964 l 731 972 l 285 972 b 49 726 157 972 49 903 l 49 247 b 285 0 49 69 157 0 l 740 0 l 740 8 l 474 8 l 474 499 l 719 499 l 719 507 l 474 507 l 474 964 z m 132 796 b 288 964 132 922 208 964 l 390 964 l 390 8 l 288 8 b 132 178 208 8 132 50 z "},"Š":{"ha":574,"x_min":0,"x_max":0,"o":"m 396 1219 l 289 1113 l 286 1113 l 178 1219 l 169 1219 l 283 1029 l 292 1029 l 404 1219 z m 519 607 l 519 739 b 285 986 519 894 432 986 b 54 739 140 986 54 894 l 54 715 b 219 475 54 585 104 513 l 289 453 b 442 275 400 417 442 368 l 442 164 b 286 -6 442 57 383 -6 b 132 164 189 -6 132 57 l 132 365 l 49 365 l 49 233 b 285 -14 49 78 136 -14 b 525 233 435 -14 525 79 l 525 264 b 351 506 525 396 474 465 l 288 525 b 138 703 175 563 138 610 l 138 808 b 286 978 138 915 193 978 b 436 808 381 978 436 915 l 436 607 z "},"Ù":{"ha":553,"x_min":0,"x_max":0,"o":"m 297 1028 l 250 1218 l 183 1218 l 289 1028 z m 49 972 l 49 232 b 275 -14 49 56 151 -14 b 503 232 397 -14 503 56 l 503 972 l 419 972 l 419 163 b 275 -6 419 36 347 -6 b 132 163 203 -6 132 36 l 132 972 z "},"Ú":{"ha":553,"x_min":0,"x_max":0,"o":"m 274 1028 l 379 1218 l 313 1218 l 265 1028 z m 49 972 l 49 232 b 275 -14 49 56 151 -14 b 503 232 397 -14 503 56 l 503 972 l 419 972 l 419 163 b 275 -6 419 36 347 -6 b 132 163 203 -6 132 36 l 132 972 z "},"Û":{"ha":553,"x_min":0,"x_max":0,"o":"m 171 1029 l 278 1138 l 281 1138 l 389 1029 l 397 1029 l 283 1219 l 275 1219 l 163 1029 z m 49 972 l 49 233 b 275 -14 49 56 151 -14 b 503 233 397 -14 503 56 l 503 972 l 419 972 l 419 164 b 275 -6 419 38 347 -6 b 132 164 203 -6 132 38 l 132 972 z "},"Ü":{"ha":553,"x_min":0,"x_max":0,"o":"m 146 1125 b 197 1072 146 1094 160 1072 b 249 1125 235 1072 249 1094 b 197 1178 249 1156 235 1178 b 146 1125 160 1178 146 1156 z m 311 1125 b 363 1072 311 1094 325 1072 b 414 1125 400 1072 414 1094 b 363 1178 414 1156 400 1178 b 311 1125 325 1178 311 1156 z m 49 972 l 49 233 b 275 -14 49 56 151 -14 b 503 233 399 -14 503 56 l 503 972 l 421 972 l 421 164 b 276 -6 421 38 349 -6 b 132 164 203 -6 132 38 l 132 972 z "},"Ÿ":{"ha":444,"x_min":0,"x_max":0,"o":"m 88 1125 b 139 1072 88 1094 101 1072 b 190 1125 176 1072 190 1094 b 139 1178 190 1156 176 1178 b 88 1125 101 1178 88 1156 z m 254 1125 b 306 1072 254 1094 268 1072 b 357 1125 343 1072 357 1094 b 306 1178 357 1156 343 1178 b 254 1125 268 1178 254 1156 z m 11 972 l 179 315 l 179 0 l 263 0 l 263 315 l 433 972 l 422 972 l 258 349 l 257 349 l 96 972 z "},"Ý":{"ha":444,"x_min":0,"x_max":0,"o":"m 217 1028 l 322 1218 l 256 1218 l 208 1028 z m 11 972 l 179 315 l 179 0 l 263 0 l 263 315 l 432 972 l 421 972 l 258 349 l 256 349 l 96 972 z "},"Ž":{"ha":497,"x_min":0,"x_max":0,"o":"m 357 1219 l 251 1113 l 249 1113 l 140 1219 l 132 1219 l 246 1029 l 254 1029 l 365 1219 z m 46 972 l 46 964 l 372 964 l 372 961 l 28 8 l 28 0 l 469 0 l 469 8 l 115 8 l 114 11 l 461 964 l 461 972 z "},"ﬁ":{"ha":515,"x_min":0,"x_max":0,"o":"m 78 811 l 78 708 l 0 708 l 0 700 l 78 700 l 78 0 l 158 0 l 158 700 l 328 700 l 328 708 l 158 708 l 158 856 b 260 979 158 947 200 979 b 332 968 279 979 308 975 l 335 976 b 236 990 300 985 267 990 b 78 811 147 990 78 943 z m 356 886 b 415 831 356 851 376 831 b 474 886 453 831 474 851 b 414 942 474 919 453 942 b 356 886 376 942 356 921 z m 376 708 l 376 0 l 457 0 l 457 708 z "},"ﬂ":{"ha":483,"x_min":0,"x_max":0,"o":"m 349 0 l 429 0 l 429 1000 l 349 1000 z m 78 813 l 78 708 l 0 708 l 0 700 l 78 700 l 78 0 l 158 0 l 158 700 l 328 700 l 328 708 l 158 708 l 158 856 b 260 979 158 946 200 979 b 332 968 279 979 308 975 l 335 975 b 236 990 300 985 267 990 b 78 813 147 990 78 943 z "},"à":{"ha":504,"x_min":0,"x_max":0,"o":"m 272 763 l 225 953 l 160 953 l 264 763 z m 379 560 l 379 381 l 276 381 b 43 206 121 381 43 322 l 43 167 b 207 -14 43 57 108 -14 b 376 101 279 -14 339 25 l 379 101 l 379 0 l 460 0 l 460 494 b 257 721 460 631 378 721 b 54 494 135 721 54 631 l 54 432 l 135 432 l 135 560 b 257 714 135 651 185 714 b 379 560 329 714 379 651 z m 379 126 b 239 13 356 54 304 13 b 124 142 168 13 124 61 l 124 236 b 303 372 124 326 183 372 l 379 372 z "},"á":{"ha":504,"x_min":0,"x_max":0,"o":"m 251 763 l 356 953 l 290 953 l 243 763 z m 379 560 l 379 381 l 276 381 b 43 206 121 381 43 322 l 43 167 b 207 -14 43 57 108 -14 b 376 101 279 -14 339 25 l 379 101 l 379 0 l 460 0 l 460 494 b 257 721 460 631 378 721 b 54 494 135 721 54 631 l 54 432 l 135 432 l 135 560 b 257 714 135 651 185 714 b 379 560 329 714 379 651 z m 379 126 b 239 13 356 54 304 13 b 124 142 168 13 124 61 l 124 236 b 303 372 124 326 183 372 l 379 372 z "},"â":{"ha":504,"x_min":0,"x_max":0,"o":"m 149 764 l 254 872 l 257 872 l 365 764 l 374 764 l 261 954 l 251 954 l 140 764 z m 379 560 l 379 381 l 276 381 b 43 206 121 381 43 322 l 43 167 b 207 -14 43 57 108 -14 b 376 101 279 -14 339 25 l 379 101 l 379 0 l 460 0 l 460 494 b 257 721 460 631 378 721 b 54 494 135 721 54 631 l 54 432 l 135 432 l 135 560 b 257 714 135 651 185 714 b 379 560 329 714 379 651 z m 379 126 b 239 13 356 54 304 13 b 124 142 168 13 124 61 l 124 236 b 303 372 124 326 183 372 l 379 372 z "},"ã":{"ha":504,"x_min":0,"x_max":0,"o":"m 386 950 l 378 950 l 378 893 b 332 818 378 842 365 818 b 267 875 304 818 286 833 l 263 886 b 190 954 242 933 221 954 b 128 818 149 954 128 906 l 128 767 l 136 767 l 136 818 b 179 900 136 875 147 900 b 239 847 206 900 221 885 l 244 836 b 319 763 267 785 289 763 b 386 893 361 763 386 808 z m 379 560 l 379 381 l 276 381 b 43 206 121 381 43 322 l 43 167 b 207 -14 43 57 107 -14 b 376 101 279 -14 339 25 l 379 101 l 379 0 l 460 0 l 460 494 b 257 721 460 631 378 721 b 54 494 133 721 54 631 l 54 432 l 133 432 l 133 560 b 257 714 133 651 185 714 b 379 560 329 714 379 651 z m 379 126 b 239 13 356 54 304 13 b 124 142 168 13 124 61 l 124 236 b 303 372 124 326 183 372 l 379 372 z "},"ä":{"ha":504,"x_min":0,"x_max":0,"o":"m 122 860 b 174 807 122 829 136 807 b 225 860 211 807 225 829 b 174 913 225 890 211 913 b 122 860 136 913 122 890 z m 288 860 b 339 807 288 829 301 807 b 390 860 376 807 390 829 b 339 913 390 890 376 913 b 288 860 301 913 288 890 z m 379 560 l 379 381 l 276 381 b 43 206 121 381 43 322 l 43 167 b 207 -14 43 57 107 -14 b 376 101 281 -14 339 25 l 379 101 l 379 0 l 460 0 l 460 494 b 257 721 460 631 378 721 b 54 494 133 721 54 631 l 54 432 l 133 432 l 133 560 b 257 714 133 651 185 714 b 379 560 329 714 379 651 z m 379 126 b 239 13 356 54 304 13 b 124 142 168 13 124 61 l 124 236 b 303 372 124 326 183 372 l 379 372 z "},"å":{"ha":504,"x_min":0,"x_max":0,"o":"m 153 858 b 258 767 153 799 193 767 b 363 858 322 767 363 799 b 257 950 363 917 321 950 b 153 858 193 950 153 918 z m 167 858 b 257 938 167 910 201 938 b 349 858 313 938 349 908 b 258 779 349 807 314 779 b 167 858 201 779 167 807 z m 379 560 l 379 381 l 276 381 b 43 206 121 381 43 322 l 43 167 b 207 -14 43 57 108 -14 b 378 101 281 -14 339 25 l 379 101 l 379 0 l 460 0 l 460 494 b 257 721 460 631 379 721 b 54 494 135 721 54 631 l 54 432 l 135 432 l 135 560 b 257 714 135 651 185 714 b 379 560 329 714 379 651 z m 379 126 b 239 13 356 54 304 13 b 124 142 168 13 124 61 l 124 236 b 303 372 124 326 183 372 l 379 372 z "},"æ":{"ha":840,"x_min":0,"x_max":0,"o":"m 381 558 l 381 381 l 278 381 b 44 207 125 381 44 325 l 44 167 b 207 -14 44 58 108 -14 b 390 131 290 -14 354 36 l 393 131 b 589 -14 418 42 492 -14 b 797 213 714 -14 797 76 l 797 268 l 718 268 l 718 149 b 589 -6 718 57 665 -6 b 461 149 513 -6 461 57 l 461 368 l 797 368 l 797 494 b 588 721 797 631 714 721 b 424 615 510 721 451 681 l 417 615 b 258 721 390 681 333 721 b 56 494 135 721 56 631 l 56 432 l 135 432 l 135 558 b 258 713 135 650 185 713 b 381 558 332 713 381 650 z m 461 558 b 589 713 461 650 513 713 b 718 558 665 713 718 650 l 718 375 l 461 375 z m 381 140 b 239 15 358 61 307 15 b 125 144 168 15 125 64 l 125 236 b 304 372 125 325 182 372 l 381 372 z "},"ç":{"ha":504,"x_min":0,"x_max":0,"o":"m 125 561 b 253 715 125 653 176 715 b 382 561 329 715 382 653 l 382 431 l 461 431 l 461 496 b 251 722 461 632 378 722 b 44 496 126 722 44 633 l 44 213 b 249 -14 44 78 125 -11 l 238 -64 b 401 -153 346 -64 401 -99 b 265 -256 401 -208 340 -256 b 199 -247 246 -256 222 -253 l 199 -256 b 281 -265 228 -262 256 -265 b 450 -154 378 -265 450 -215 b 249 -56 450 -96 381 -56 l 257 -14 b 461 213 379 -11 461 79 l 461 279 l 382 279 l 382 149 b 253 -6 382 57 329 -6 b 125 149 176 -6 125 57 z "},"đ":{"ha":504,"x_min":0,"x_max":0,"o":"m 460 0 l 460 853 l 528 853 l 528 861 l 460 861 l 460 1000 l 379 1000 l 379 861 l 235 861 l 235 853 l 379 853 l 379 618 l 376 618 b 217 722 344 683 286 722 b 44 514 117 722 44 642 l 44 206 b 210 -14 44 69 115 -14 b 376 99 279 -14 343 29 l 379 99 l 379 0 z m 379 122 b 246 10 360 57 306 10 b 125 160 175 10 125 72 l 125 551 b 249 703 125 640 176 703 b 379 594 308 703 360 658 z "},"è":{"ha":504,"x_min":0,"x_max":0,"o":"m 268 763 l 219 953 l 154 953 l 260 763 z m 125 353 l 461 353 l 461 496 b 251 722 461 632 376 722 b 44 496 126 722 44 632 l 44 213 b 251 -14 44 76 126 -14 b 461 213 376 -14 461 76 l 461 268 l 381 268 l 381 149 b 253 -6 381 57 329 -6 b 125 149 176 -6 125 57 z m 125 560 b 253 714 125 651 176 714 b 381 560 329 714 381 651 l 381 361 l 125 361 z "},"é":{"ha":504,"x_min":0,"x_max":0,"o":"m 246 763 l 350 953 l 285 953 l 238 763 z m 125 353 l 461 353 l 461 496 b 251 722 461 632 376 722 b 44 496 126 722 44 632 l 44 213 b 251 -14 44 76 126 -14 b 461 213 376 -14 461 76 l 461 268 l 381 268 l 381 149 b 253 -6 381 57 329 -6 b 125 149 176 -6 125 57 z m 125 560 b 253 714 125 651 176 714 b 381 560 329 714 381 651 l 381 361 l 125 361 z "},"ê":{"ha":504,"x_min":0,"x_max":0,"o":"m 142 764 l 249 872 l 251 872 l 360 764 l 368 764 l 254 954 l 246 954 l 133 764 z m 125 353 l 461 353 l 461 496 b 251 722 461 632 376 722 b 44 496 126 722 44 632 l 44 213 b 251 -14 44 76 126 -14 b 461 213 376 -14 461 76 l 461 268 l 381 268 l 381 149 b 253 -6 381 57 329 -6 b 125 149 176 -6 125 57 z m 125 561 b 253 714 125 653 176 714 b 381 561 329 714 381 653 l 381 361 l 125 361 z "},"ë":{"ha":504,"x_min":0,"x_max":0,"o":"m 117 860 b 168 807 117 829 131 807 b 221 860 206 807 221 829 b 168 913 221 890 206 913 b 117 860 131 913 117 890 z m 282 860 b 333 807 282 829 296 807 b 386 860 371 807 386 829 b 333 913 386 890 371 913 b 282 860 296 913 282 890 z m 125 353 l 461 353 l 461 496 b 251 722 461 632 376 722 b 44 496 126 722 44 632 l 44 213 b 251 -14 44 76 126 -14 b 461 213 376 -14 461 76 l 461 268 l 381 268 l 381 149 b 253 -6 381 57 329 -6 b 125 149 176 -6 125 57 z m 125 561 b 253 714 125 653 176 714 b 381 561 329 714 381 653 l 381 361 l 125 361 z "},"ì":{"ha":201,"x_min":0,"x_max":0,"o":"m 115 764 l 68 954 l 1 954 l 107 764 z m 61 708 l 61 0 l 142 0 l 142 708 z "},"í":{"ha":201,"x_min":0,"x_max":0,"o":"m 94 764 l 200 954 l 133 954 l 86 764 z m 61 708 l 61 0 l 142 0 l 142 708 z "},"î":{"ha":201,"x_min":0,"x_max":0,"o":"m -8 765 l 97 874 l 100 874 l 210 765 l 218 765 l 104 956 l 96 956 l -17 765 z m 61 708 l 61 0 l 142 0 l 142 708 z "},"ï":{"ha":293,"x_min":0,"x_max":0,"o":"m 10 861 b 61 808 10 831 24 808 b 114 861 100 808 114 831 b 61 914 114 892 99 914 b 10 861 24 914 10 892 z m 176 861 b 228 808 176 831 190 808 b 281 861 267 808 281 831 b 228 914 281 892 265 914 b 176 861 190 914 176 892 z m 106 708 l 106 0 l 186 0 l 186 708 z "},"ł":{"ha":189,"x_min":0,"x_max":0,"o":"m 54 0 l 135 0 l 135 474 l 208 501 l 204 513 l 135 486 l 135 1000 l 54 1000 l 54 456 l -17 428 l -12 417 l 54 443 z "},"ñ":{"ha":508,"x_min":0,"x_max":0,"o":"m 388 950 l 379 950 l 379 893 b 332 818 379 842 365 818 b 268 875 304 818 288 833 l 264 886 b 193 954 243 933 221 954 b 129 818 150 954 129 906 l 129 767 l 138 767 l 138 818 b 181 900 138 875 149 900 b 240 847 206 900 222 885 l 244 836 b 319 763 267 785 289 763 b 388 893 363 763 388 808 z m 49 1 l 128 1 l 128 565 b 269 696 151 644 207 696 b 385 544 336 696 385 635 l 385 1 l 465 1 l 465 510 b 300 722 465 639 394 722 b 131 590 229 722 168 674 l 128 590 l 128 710 l 49 710 z "},"ò":{"ha":504,"x_min":0,"x_max":0,"o":"m 269 763 l 221 953 l 156 953 l 261 763 z m 44 494 l 44 211 b 251 -15 44 78 124 -15 b 460 211 379 -15 460 78 l 460 494 b 251 721 460 629 379 721 b 44 494 124 721 44 629 z m 124 560 b 253 714 124 651 176 714 b 381 560 328 714 381 651 l 381 147 b 253 -6 381 56 329 -6 b 124 147 176 -6 124 56 z "},"ó":{"ha":504,"x_min":0,"x_max":0,"o":"m 247 763 l 351 953 l 286 953 l 239 763 z m 44 494 l 44 211 b 251 -15 44 78 124 -15 b 460 211 379 -15 460 78 l 460 494 b 251 721 460 629 379 721 b 44 494 124 721 44 629 z m 124 560 b 253 714 124 651 176 714 b 381 560 328 714 381 651 l 381 147 b 253 -6 381 56 329 -6 b 124 147 176 -6 124 56 z "},"ô":{"ha":504,"x_min":0,"x_max":0,"o":"m 143 764 l 250 872 l 253 872 l 361 764 l 369 764 l 256 954 l 247 954 l 135 764 z m 44 496 l 44 213 b 251 -14 44 78 124 -14 b 460 213 379 -14 460 79 l 460 496 b 251 722 460 629 379 722 b 44 496 124 722 44 629 z m 124 560 b 253 714 124 653 176 714 b 381 560 328 714 381 653 l 381 147 b 253 -6 381 56 329 -6 b 124 147 176 -6 124 56 z "},"õ":{"ha":504,"x_min":0,"x_max":0,"o":"m 382 950 l 374 950 l 374 893 b 328 818 374 842 361 818 b 263 875 299 818 282 833 l 258 886 b 186 954 238 933 217 954 b 124 818 143 954 124 906 l 124 767 l 132 767 l 132 818 b 175 900 132 875 143 900 b 235 847 201 900 217 885 l 239 836 b 314 763 261 785 285 763 b 382 893 358 763 382 808 z m 44 496 l 44 213 b 251 -14 44 79 124 -14 b 460 213 379 -14 460 79 l 460 496 b 251 722 460 629 379 722 b 44 496 124 722 44 631 z m 124 561 b 253 715 124 653 176 715 b 381 561 328 715 381 653 l 381 149 b 253 -6 381 57 329 -6 b 124 149 176 -6 124 57 z "},"ö":{"ha":504,"x_min":0,"x_max":0,"o":"m 118 860 b 169 807 118 829 132 807 b 221 860 207 807 221 829 b 169 913 221 890 207 913 b 118 860 132 913 118 890 z m 283 860 b 335 807 283 829 297 807 b 386 860 372 807 386 829 b 335 913 386 890 372 913 b 283 860 297 913 283 890 z m 44 496 l 44 213 b 251 -14 44 78 124 -14 b 460 213 379 -14 460 79 l 460 496 b 251 722 460 629 379 722 b 44 496 124 722 44 629 z m 124 560 b 253 714 124 653 176 714 b 381 560 328 714 381 653 l 381 147 b 253 -6 381 56 329 -6 b 124 147 176 -6 124 56 z "},"ø":{"ha":504,"x_min":0,"x_max":0,"o":"m 44 496 l 44 213 b 86 65 44 154 60 104 l 44 -8 l 54 -14 l 93 57 b 251 -14 129 13 183 -14 b 460 213 379 -14 460 79 l 460 496 b 418 640 460 553 444 603 l 460 717 l 450 722 l 411 650 b 251 722 374 696 319 722 b 44 496 124 722 44 629 z m 124 560 b 253 714 124 653 176 714 b 378 592 319 714 368 667 l 124 135 b 124 147 124 139 124 143 z m 379 572 b 381 560 381 568 381 564 l 381 147 b 253 -6 381 56 329 -6 b 126 115 185 -6 138 42 z "},"œ":{"ha":840,"x_min":0,"x_max":0,"o":"m 44 496 l 44 213 b 251 -14 44 79 124 -14 b 418 92 329 -14 390 26 l 421 92 b 588 -14 449 26 510 -14 b 796 213 713 -14 796 76 l 796 268 l 717 268 l 717 149 b 589 -6 717 57 665 -6 b 460 149 511 -6 460 57 l 460 353 l 796 353 l 796 496 b 588 722 796 632 713 722 b 421 617 510 722 449 682 l 418 617 b 251 722 390 682 329 722 b 44 496 124 722 44 631 z m 124 561 b 253 715 124 653 176 715 b 381 561 328 715 381 653 l 381 149 b 253 -6 381 57 329 -6 b 124 149 176 -6 124 57 z m 460 561 b 589 715 460 653 513 715 b 717 561 665 715 717 653 l 717 361 l 460 361 z "},"Þ":{"ha":553,"x_min":0,"x_max":0,"o":"m 54 972 l 54 0 l 138 0 l 138 196 l 264 196 b 503 478 422 196 503 285 l 503 481 b 265 778 503 679 421 778 l 138 778 l 138 972 z m 138 769 l 264 769 b 419 561 368 769 419 700 l 419 403 b 264 204 419 269 368 204 l 138 204 z "},"š":{"ha":504,"x_min":0,"x_max":0,"o":"m 361 954 l 256 847 l 253 847 l 144 954 l 136 954 l 250 764 l 258 764 l 369 954 z m 456 443 l 456 500 b 251 722 456 632 378 722 b 50 521 129 722 50 636 l 50 514 b 190 343 50 424 96 369 l 264 321 b 381 194 351 299 381 268 l 381 128 b 251 -4 381 53 325 -4 b 126 149 175 -4 126 56 l 126 265 l 46 265 l 46 208 b 250 -14 46 78 125 -14 b 461 183 374 -14 461 75 l 461 199 b 311 372 461 293 415 343 l 242 394 b 131 515 161 415 131 447 l 131 579 b 251 714 131 661 178 714 b 375 561 329 714 375 657 l 375 443 z "},"ù":{"ha":504,"x_min":0,"x_max":0,"o":"m 268 763 l 219 953 l 154 953 l 260 763 z m 460 708 l 379 708 l 379 142 b 239 13 354 64 299 13 b 125 164 172 13 125 74 l 125 708 l 44 708 l 44 199 b 207 -14 44 69 115 -14 b 376 118 275 -14 336 33 l 379 118 l 379 0 l 460 0 z "},"ú":{"ha":504,"x_min":0,"x_max":0,"o":"m 247 763 l 353 953 l 288 953 l 239 763 z m 460 708 l 379 708 l 379 142 b 239 13 354 64 299 13 b 125 164 172 13 125 74 l 125 708 l 44 708 l 44 199 b 207 -14 44 69 115 -14 b 376 118 275 -14 336 33 l 379 118 l 379 0 l 460 0 z "},"û":{"ha":504,"x_min":0,"x_max":0,"o":"m 144 764 l 251 872 l 254 872 l 361 764 l 369 764 l 257 954 l 249 954 l 136 764 z m 460 708 l 379 708 l 379 142 b 239 13 354 64 299 13 b 125 164 172 13 125 75 l 125 708 l 44 708 l 44 199 b 207 -14 44 69 115 -14 b 376 118 275 -14 336 35 l 379 118 l 379 0 l 460 0 z "},"ü":{"ha":504,"x_min":0,"x_max":0,"o":"m 118 860 b 169 807 118 829 133 807 b 221 860 207 807 221 829 b 169 913 221 890 207 913 b 118 860 132 913 118 890 z m 283 860 b 335 807 283 829 299 807 b 386 860 372 807 386 829 b 335 913 386 890 372 913 b 283 860 297 913 283 890 z m 460 708 l 379 708 l 379 140 b 239 13 353 63 299 13 b 125 164 172 13 125 75 l 125 708 l 44 708 l 44 199 b 206 -14 44 69 114 -14 b 376 118 275 -14 336 35 l 379 118 l 379 0 l 460 0 z "},"ý":{"ha":508,"x_min":0,"x_max":0,"o":"m 247 763 l 353 953 l 286 953 l 239 763 z m 465 708 l 385 708 l 385 144 b 243 13 360 65 304 13 b 131 164 178 13 131 75 l 131 708 l 50 708 l 50 199 b 211 -14 50 69 119 -14 b 382 118 281 -14 342 35 l 385 118 l 385 -129 b 263 -283 385 -222 336 -283 b 140 -132 190 -283 140 -222 l 140 -61 l 60 -61 l 60 -75 b 263 -292 60 -206 140 -292 b 465 -72 385 -292 465 -206 z "},"ÿ":{"ha":508,"x_min":0,"x_max":0,"o":"m 118 860 b 169 807 118 829 132 807 b 221 860 207 807 221 829 b 169 913 221 890 207 913 b 118 860 132 913 118 890 z m 283 860 b 335 807 283 829 297 807 b 386 860 372 807 386 829 b 335 913 386 890 372 913 b 283 860 297 913 283 890 z m 465 708 l 385 708 l 385 142 b 243 13 358 64 303 13 b 129 164 176 13 129 75 l 129 708 l 50 708 l 50 199 b 211 -14 50 69 118 -14 b 382 118 281 -14 342 35 l 385 118 l 385 -129 b 263 -283 385 -222 335 -283 b 140 -132 189 -283 140 -222 l 140 -61 l 60 -61 l 60 -75 b 263 -292 60 -206 140 -292 b 465 -72 386 -292 465 -206 z "},"ž":{"ha":451,"x_min":0,"x_max":0,"o":"m 333 954 l 228 847 l 225 847 l 117 954 l 108 954 l 222 764 l 231 764 l 342 954 z m 418 0 l 418 8 l 118 8 l 117 11 l 400 700 l 400 708 l 49 708 l 49 700 l 314 700 l 315 697 l 33 8 l 33 0 z "},"þ":{"ha":508,"x_min":0,"x_max":0,"o":"m 49 -292 l 129 -292 l 129 107 l 132 107 b 297 -14 167 31 229 -14 b 465 200 394 -14 465 75 l 465 510 b 299 722 465 635 396 722 b 132 600 229 722 167 676 l 129 601 l 129 1000 l 49 1000 z m 129 574 b 267 696 150 646 207 696 b 385 539 335 696 385 629 l 385 164 b 267 13 385 76 335 13 b 129 132 207 13 150 61 z "},"Ā":{"ha":519,"x_min":0,"x_max":0,"o":"m 397 1125 l 122 1125 l 122 1117 l 397 1117 z m 228 972 l 13 0 l 22 0 l 104 351 l 347 351 l 424 0 l 507 0 l 301 972 z m 106 360 l 228 890 l 231 890 l 346 360 z "},"ā":{"ha":504,"x_min":0,"x_max":0,"o":"m 394 860 l 121 860 l 121 851 l 394 851 z m 379 560 l 379 381 l 276 381 b 43 206 121 381 43 322 l 43 167 b 207 -14 43 57 108 -14 b 376 101 279 -14 339 25 l 379 101 l 379 0 l 460 0 l 460 494 b 257 721 460 631 378 721 b 54 494 135 721 54 631 l 54 432 l 135 432 l 135 560 b 257 714 135 651 185 714 b 379 560 329 714 379 651 z m 379 126 b 239 13 356 54 304 13 b 124 142 168 13 124 61 l 124 236 b 303 372 124 326 183 372 l 379 372 z "},"Ă":{"ha":519,"x_min":0,"x_max":0,"o":"m 115 1218 b 260 1028 115 1100 161 1028 b 406 1218 358 1028 406 1100 l 396 1218 b 260 1075 396 1143 361 1075 b 124 1218 158 1075 124 1143 z m 228 972 l 11 0 l 22 0 l 103 351 l 347 351 l 424 0 l 507 0 l 301 972 z m 106 360 l 228 890 l 231 890 l 344 360 z "},"ă":{"ha":504,"x_min":0,"x_max":0,"o":"m 113 953 b 258 763 113 835 160 763 b 401 953 356 763 401 835 l 393 953 b 257 810 393 876 358 810 b 121 953 156 810 121 876 z m 379 560 l 379 381 l 276 381 b 43 206 121 381 43 322 l 43 167 b 207 -14 43 57 108 -14 b 376 101 279 -14 339 25 l 379 101 l 379 0 l 460 0 l 460 494 b 257 721 460 631 378 721 b 54 494 135 721 54 631 l 54 432 l 135 432 l 135 560 b 257 714 135 651 185 714 b 379 560 329 714 379 651 z m 379 126 b 239 13 356 54 304 13 b 124 142 168 13 124 61 l 124 236 b 303 372 124 326 183 372 l 379 372 z "},"Ą":{"ha":519,"x_min":0,"x_max":0,"o":"m 228 972 l 13 1 l 24 1 l 104 351 l 347 351 l 424 1 l 438 1 b 288 -149 349 -17 288 -79 b 410 -251 288 -208 333 -251 b 504 -233 438 -251 469 -246 l 504 -226 b 435 -239 478 -235 453 -239 b 333 -142 375 -239 333 -194 b 488 1 333 -72 407 0 l 507 1 l 301 972 z m 106 360 l 228 890 l 231 890 l 346 360 z "},"ą":{"ha":504,"x_min":0,"x_max":0,"o":"m 379 560 l 379 381 l 276 381 b 43 206 121 381 43 322 l 43 167 b 207 -14 43 58 108 -14 b 376 103 281 -14 339 26 l 379 103 l 379 1 l 393 1 b 243 -149 304 -17 243 -79 b 365 -251 243 -208 289 -251 b 460 -233 393 -251 425 -246 l 460 -226 b 390 -239 433 -235 408 -239 b 289 -142 331 -239 289 -194 b 443 1 289 -72 363 0 l 460 1 l 460 494 b 257 721 460 631 378 721 b 54 494 135 721 54 631 l 54 432 l 135 432 l 135 560 b 257 714 135 651 185 714 b 379 560 329 714 379 651 z m 379 126 b 239 14 356 56 304 14 b 124 143 168 14 124 63 l 124 236 b 303 372 124 326 183 372 l 379 372 z "},"Ć":{"ha":574,"x_min":0,"x_max":0,"o":"m 279 1028 l 385 1218 l 318 1218 l 271 1028 z m 132 810 b 286 978 132 936 208 978 b 440 810 364 978 440 936 l 440 574 l 524 574 l 524 740 b 285 986 524 917 414 986 b 49 740 158 986 49 917 l 49 233 b 285 -14 49 56 158 -14 b 524 233 414 -14 524 57 l 524 400 l 440 400 l 440 164 b 286 -6 440 38 364 -6 b 132 164 208 -6 132 38 z "},"ć":{"ha":504,"x_min":0,"x_max":0,"o":"m 247 763 l 351 953 l 286 953 l 239 763 z m 125 560 b 253 714 125 651 176 714 b 382 560 329 714 382 651 l 382 429 l 461 429 l 461 494 b 251 721 461 631 378 721 b 46 494 126 721 46 632 l 46 211 b 251 -15 46 75 128 -15 b 461 211 378 -15 461 76 l 461 278 l 382 278 l 382 147 b 253 -6 382 56 329 -6 b 125 147 176 -6 125 56 z "},"Ĉ":{"ha":574,"x_min":0,"x_max":0,"o":"m 176 1029 l 283 1138 l 286 1138 l 394 1029 l 403 1029 l 289 1219 l 281 1219 l 168 1029 z m 132 810 b 286 978 132 936 208 978 b 440 810 364 978 440 936 l 440 574 l 524 574 l 524 740 b 285 986 524 917 414 986 b 49 740 158 986 49 918 l 49 233 b 285 -14 49 56 158 -14 b 524 233 414 -14 524 57 l 524 400 l 440 400 l 440 164 b 286 -6 440 38 364 -6 b 132 164 208 -6 132 38 z "},"ĉ":{"ha":504,"x_min":0,"x_max":0,"o":"m 143 764 l 250 872 l 253 872 l 361 764 l 369 764 l 256 954 l 247 954 l 135 764 z m 125 560 b 253 714 125 651 176 714 b 382 560 329 714 382 651 l 382 429 l 461 429 l 461 496 b 251 722 461 632 378 722 b 46 496 126 722 46 632 l 46 213 b 251 -14 46 76 128 -14 b 461 213 378 -14 461 76 l 461 278 l 382 278 l 382 147 b 253 -6 382 56 329 -6 b 125 147 176 -6 125 56 z "},"Ċ":{"ha":574,"x_min":0,"x_max":0,"o":"m 233 1125 b 285 1072 233 1094 247 1072 b 338 1125 322 1072 338 1094 b 285 1178 338 1156 322 1178 b 233 1125 247 1178 233 1156 z m 132 810 b 288 978 132 936 210 978 b 440 810 365 978 440 936 l 440 574 l 524 574 l 524 740 b 286 986 524 917 414 986 b 49 740 158 986 49 918 l 49 233 b 286 -14 49 56 158 -14 b 524 233 414 -14 524 57 l 524 400 l 440 400 l 440 164 b 288 -6 440 38 365 -6 b 132 164 210 -6 132 38 z "},"ċ":{"ha":504,"x_min":0,"x_max":0,"o":"m 201 860 b 254 807 201 829 217 807 b 306 860 292 807 306 829 b 254 913 306 890 292 913 b 201 860 215 913 201 890 z m 125 560 b 253 714 125 651 178 714 b 382 560 329 714 382 651 l 382 429 l 461 429 l 461 496 b 251 722 461 632 378 722 b 46 496 126 722 46 632 l 46 213 b 253 -14 46 76 128 -14 b 461 213 378 -14 461 76 l 461 278 l 382 278 l 382 147 b 253 -6 382 56 329 -6 b 125 147 176 -6 125 56 z "},"Č":{"ha":574,"x_min":0,"x_max":0,"o":"m 396 1218 l 289 1111 l 286 1111 l 178 1218 l 169 1218 l 283 1028 l 292 1028 l 404 1218 z m 132 810 b 286 978 132 936 208 978 b 440 810 364 978 440 936 l 440 574 l 524 574 l 524 740 b 285 988 524 917 414 988 b 49 740 158 988 49 918 l 49 233 b 285 -14 49 56 158 -14 b 524 233 414 -14 524 57 l 524 400 l 440 400 l 440 164 b 286 -6 440 38 364 -6 b 132 164 208 -6 132 38 z "},"č":{"ha":504,"x_min":0,"x_max":0,"o":"m 361 954 l 256 847 l 253 847 l 144 954 l 136 954 l 250 764 l 258 764 l 369 954 z m 125 560 b 253 714 125 651 176 714 b 382 560 329 714 382 651 l 382 429 l 461 429 l 461 496 b 251 722 461 632 378 722 b 46 496 126 722 46 632 l 46 213 b 251 -14 46 76 128 -14 b 461 213 378 -14 461 76 l 461 278 l 382 278 l 382 147 b 253 -6 382 56 329 -6 b 125 147 176 -6 125 56 z "},"Ď":{"ha":563,"x_min":0,"x_max":0,"o":"m 381 1219 l 275 1113 l 272 1113 l 164 1219 l 156 1219 l 269 1029 l 278 1029 l 389 1219 z m 54 972 l 54 0 l 276 0 b 514 239 404 0 514 65 l 514 732 b 276 972 514 906 404 972 z m 138 964 l 275 964 b 431 799 354 964 431 924 l 431 174 b 275 8 431 49 354 8 l 138 8 z "},"ď":{"ha":504,"x_min":0,"x_max":0,"o":"m 460 0 l 460 1000 l 379 1000 l 379 618 l 376 618 b 217 722 344 683 286 722 b 44 514 117 722 44 642 l 44 206 b 210 -14 44 69 115 -14 b 376 99 279 -14 343 29 l 379 99 l 379 0 z m 514 667 l 531 667 l 619 1000 l 551 1000 z m 379 122 b 246 10 360 57 306 10 b 125 160 175 10 125 72 l 125 551 b 249 703 125 640 176 703 b 379 594 308 703 360 658 z "},"Ē":{"ha":433,"x_min":0,"x_max":0,"o":"m 368 1125 l 93 1125 l 93 1117 l 368 1117 z m 396 964 l 396 972 l 54 972 l 54 0 l 407 0 l 407 8 l 138 8 l 138 499 l 386 499 l 386 507 l 138 507 l 138 964 z "},"ē":{"ha":504,"x_min":0,"x_max":0,"o":"m 389 860 l 115 860 l 115 851 l 389 851 z m 125 353 l 461 353 l 461 496 b 251 722 461 632 376 722 b 44 496 126 722 44 632 l 44 213 b 251 -14 44 76 126 -14 b 461 213 376 -14 461 76 l 461 268 l 381 268 l 381 149 b 253 -6 381 57 329 -6 b 125 149 176 -6 125 57 z m 125 560 b 253 714 125 653 176 714 b 381 560 329 714 381 653 l 381 361 l 125 361 z "},"Ĕ":{"ha":433,"x_min":0,"x_max":0,"o":"m 85 1218 b 229 1028 85 1100 132 1028 b 375 1218 328 1028 375 1100 l 367 1218 b 229 1075 367 1143 331 1075 b 93 1218 128 1075 93 1143 z m 394 964 l 394 972 l 54 972 l 54 0 l 406 0 l 406 8 l 138 8 l 138 499 l 385 499 l 385 507 l 138 507 l 138 964 z "},"ĕ":{"ha":504,"x_min":0,"x_max":0,"o":"m 107 953 b 251 763 107 835 154 763 b 397 953 350 763 397 835 l 388 953 b 251 810 388 876 353 810 b 115 953 150 810 115 876 z m 125 353 l 461 353 l 461 496 b 251 722 461 632 376 722 b 44 496 126 722 44 632 l 44 213 b 251 -14 44 76 126 -14 b 461 213 376 -14 461 76 l 461 268 l 381 268 l 381 149 b 253 -6 381 57 329 -6 b 125 149 176 -6 125 57 z m 125 560 b 253 714 125 653 176 714 b 381 560 329 714 381 653 l 381 361 l 125 361 z "},"Ė":{"ha":433,"x_min":0,"x_max":0,"o":"m 178 1125 b 231 1072 178 1094 193 1072 b 282 1125 268 1072 282 1094 b 229 1178 282 1154 267 1178 b 178 1125 192 1178 178 1156 z m 396 964 l 396 972 l 54 972 l 54 0 l 406 0 l 406 8 l 138 8 l 138 499 l 385 499 l 385 507 l 138 507 l 138 964 z "},"ė":{"ha":504,"x_min":0,"x_max":0,"o":"m 200 860 b 253 807 200 829 215 807 b 304 860 290 807 304 829 b 253 913 304 890 290 913 b 200 860 214 913 200 890 z m 125 353 l 461 353 l 461 496 b 251 722 461 632 376 722 b 44 496 126 722 44 632 l 44 213 b 251 -14 44 76 126 -14 b 461 213 376 -14 461 76 l 461 268 l 381 268 l 381 149 b 253 -6 381 57 329 -6 b 125 149 176 -6 125 57 z m 125 561 b 253 714 125 653 176 714 b 381 561 329 714 381 653 l 381 361 l 125 361 z "},"Ę":{"ha":433,"x_min":0,"x_max":0,"o":"m 393 964 l 393 972 l 54 972 l 54 0 l 338 0 b 189 -149 249 -18 189 -81 b 310 -251 189 -208 235 -251 b 404 -233 338 -251 369 -246 l 404 -226 b 335 -239 378 -235 353 -239 b 235 -142 276 -239 235 -194 b 388 0 235 -72 307 -1 l 404 0 l 404 8 l 138 8 l 138 499 l 383 499 l 383 507 l 138 507 l 138 964 z "},"ę":{"ha":504,"x_min":0,"x_max":0,"o":"m 361 -226 b 292 -239 336 -235 311 -239 b 192 -142 233 -239 192 -194 b 290 -11 192 -89 232 -35 b 461 213 393 6 461 92 l 461 268 l 381 268 l 381 149 b 253 -6 381 57 329 -6 b 125 149 176 -6 125 57 l 125 353 l 461 353 l 461 496 b 251 722 461 632 376 722 b 44 496 126 722 44 633 l 44 213 b 253 -14 44 76 126 -14 b 144 -149 186 -40 144 -92 b 267 -251 144 -208 192 -251 b 361 -233 294 -251 326 -246 z m 125 561 b 253 715 125 653 176 715 b 381 561 329 715 381 653 l 381 361 l 125 361 z "},"Ě":{"ha":433,"x_min":0,"x_max":0,"o":"m 338 1219 l 232 1111 l 229 1111 l 121 1219 l 113 1219 l 226 1029 l 235 1029 l 346 1219 z m 394 964 l 394 972 l 54 972 l 54 0 l 406 0 l 406 8 l 138 8 l 138 499 l 385 499 l 385 507 l 138 507 l 138 964 z "},"ě":{"ha":504,"x_min":0,"x_max":0,"o":"m 361 953 l 256 846 l 253 846 l 144 953 l 136 953 l 250 763 l 258 763 l 369 953 z m 125 353 l 461 353 l 461 496 b 251 722 461 632 376 722 b 44 496 126 722 44 633 l 44 213 b 251 -14 44 76 126 -14 b 461 213 376 -14 461 76 l 461 268 l 381 268 l 381 149 b 253 -6 381 57 329 -6 b 125 149 176 -6 125 57 z m 125 561 b 253 715 125 653 176 715 b 381 561 329 715 381 653 l 381 361 l 125 361 z "},"Ĝ":{"ha":574,"x_min":0,"x_max":0,"o":"m 176 1029 l 283 1138 l 286 1138 l 394 1029 l 403 1029 l 289 1219 l 281 1219 l 168 1029 z m 132 810 b 286 978 132 936 208 978 b 440 810 364 978 440 936 l 440 582 l 525 582 l 525 740 b 285 986 525 917 414 986 b 49 740 158 986 49 918 l 49 232 b 254 -14 49 64 150 -14 b 458 131 336 -14 419 35 l 461 131 l 461 0 l 525 0 l 525 490 l 285 490 l 285 482 l 440 482 l 440 229 b 271 -1 440 74 353 -1 b 132 167 199 -1 132 56 z "},"ĝ":{"ha":504,"x_min":0,"x_max":0,"o":"m 128 764 l 233 872 l 236 872 l 344 764 l 353 764 l 240 954 l 231 954 l 119 764 z m 460 708 l 379 708 l 379 590 l 376 590 b 204 722 335 674 272 722 b 43 510 111 722 43 633 l 43 201 b 206 -14 43 76 113 -14 b 376 118 272 -14 335 35 l 379 118 l 379 -129 b 257 -283 379 -222 329 -283 b 135 -132 183 -283 135 -222 l 135 -61 l 54 -61 l 54 -75 b 257 -292 54 -206 135 -292 b 460 -72 379 -292 460 -206 z m 379 565 l 379 144 b 236 13 353 67 294 13 b 124 164 174 13 124 78 l 124 544 b 238 696 124 631 174 696 b 379 565 294 696 353 642 z "},"Ğ":{"ha":574,"x_min":0,"x_max":0,"o":"m 142 1218 b 288 1028 142 1100 188 1028 b 432 1218 385 1028 432 1100 l 424 1218 b 288 1075 424 1143 389 1075 b 150 1218 185 1075 150 1143 z m 132 810 b 288 978 132 936 210 978 b 440 810 364 978 440 936 l 440 582 l 525 582 l 525 740 b 286 986 525 917 414 986 b 49 740 158 986 49 917 l 49 232 b 254 -14 49 64 151 -14 b 458 131 338 -14 421 35 l 461 131 l 461 0 l 525 0 l 525 490 l 285 490 l 285 482 l 440 482 l 440 229 b 271 -1 440 74 354 -1 b 132 167 200 -1 132 56 z "},"ğ":{"ha":504,"x_min":0,"x_max":0,"o":"m 92 953 b 238 763 92 835 139 763 b 382 953 335 763 382 835 l 372 953 b 236 810 372 876 338 810 b 100 953 135 810 100 876 z m 460 708 l 379 708 l 379 590 l 376 590 b 204 722 335 674 272 722 b 43 510 111 722 43 633 l 43 201 b 206 -14 43 76 113 -14 b 376 118 272 -14 335 35 l 379 118 l 379 -129 b 257 -283 379 -222 329 -283 b 135 -132 183 -283 135 -222 l 135 -61 l 54 -61 l 54 -75 b 257 -292 54 -206 135 -292 b 460 -72 379 -292 460 -206 z m 379 565 l 379 144 b 236 13 353 67 294 13 b 124 164 174 13 124 78 l 124 544 b 238 696 124 631 174 696 b 379 565 294 696 353 642 z "},"Ġ":{"ha":574,"x_min":0,"x_max":0,"o":"m 233 1125 b 285 1072 233 1094 247 1072 b 338 1125 322 1072 338 1094 b 285 1178 338 1156 322 1178 b 233 1125 247 1178 233 1156 z m 132 810 b 288 978 132 936 210 978 b 440 810 365 978 440 936 l 440 582 l 525 582 l 525 740 b 286 986 525 917 414 986 b 49 740 158 986 49 918 l 49 232 b 254 -14 49 64 150 -14 b 458 131 338 -14 421 35 l 461 131 l 461 0 l 525 0 l 525 490 l 285 490 l 285 482 l 440 482 l 440 229 b 271 -1 440 74 354 -1 b 132 167 199 -1 132 56 z "},"ġ":{"ha":504,"x_min":0,"x_max":0,"o":"m 185 860 b 238 807 185 829 200 807 b 289 860 275 807 289 829 b 238 913 289 890 275 913 b 185 860 200 913 185 890 z m 460 708 l 379 708 l 379 590 l 376 590 b 204 722 335 674 272 722 b 43 510 111 722 43 633 l 43 201 b 206 -14 43 76 113 -14 b 376 118 272 -14 336 35 l 379 118 l 379 -129 b 257 -283 379 -222 331 -283 b 135 -132 183 -283 135 -222 l 135 -61 l 54 -61 l 54 -75 b 257 -292 54 -206 135 -292 b 460 -72 379 -292 460 -206 z m 379 565 l 379 144 b 238 13 354 67 296 13 b 124 164 174 13 124 78 l 124 544 b 238 696 124 631 174 696 b 379 565 296 696 354 642 z "},"Ģ":{"ha":574,"x_min":0,"x_max":0,"o":"m 132 810 b 286 978 132 936 208 978 b 440 810 364 978 440 936 l 440 582 l 525 582 l 525 740 b 285 986 525 917 414 986 b 49 740 158 986 49 918 l 49 232 b 254 -14 49 64 150 -14 b 458 131 336 -14 419 35 l 461 131 l 461 0 l 525 0 l 525 490 l 285 490 l 285 482 l 440 482 l 440 229 b 271 -1 440 74 353 -1 b 132 167 199 -1 132 56 z m 238 -246 l 254 -246 l 324 -56 l 249 -56 z "},"ģ":{"ha":504,"x_min":0,"x_max":0,"o":"m 306 953 l 290 953 l 218 763 l 292 763 z m 460 708 l 379 708 l 379 590 l 376 590 b 204 722 335 674 272 722 b 43 510 111 722 43 633 l 43 201 b 206 -14 43 76 113 -14 b 376 118 272 -14 335 35 l 379 118 l 379 -129 b 257 -283 379 -222 329 -283 b 135 -132 183 -283 135 -222 l 135 -61 l 54 -61 l 54 -75 b 257 -292 54 -206 135 -292 b 460 -72 379 -292 460 -206 z m 379 565 l 379 144 b 236 13 353 67 294 13 b 124 164 174 13 124 78 l 124 544 b 238 696 124 631 174 696 b 379 565 294 696 353 642 z "},"Ĥ":{"ha":544,"x_min":0,"x_max":0,"o":"m 164 1029 l 269 1138 l 272 1138 l 381 1029 l 389 1029 l 275 1219 l 267 1219 l 156 1029 z m 408 972 l 408 503 l 139 503 l 139 972 l 56 972 l 56 0 l 139 0 l 139 494 l 408 494 l 408 0 l 492 0 l 492 972 z "},"ĥ":{"ha":508,"x_min":0,"x_max":0,"o":"m -22 1043 l 85 1151 l 88 1151 l 196 1043 l 204 1043 l 90 1233 l 82 1233 l -31 1043 z m 49 0 l 129 0 l 129 565 b 269 696 153 643 208 696 b 385 544 336 696 385 633 l 385 0 l 465 0 l 465 510 b 300 722 465 639 393 722 b 132 590 229 722 169 674 l 129 590 l 129 1000 l 49 1000 z "},"Ħ":{"ha":544,"x_min":0,"x_max":0,"o":"m 408 972 l 408 754 l 139 754 l 139 972 l 56 972 l 56 754 l 7 754 l 7 746 l 56 746 l 56 0 l 139 0 l 139 494 l 408 494 l 408 0 l 492 0 l 492 746 l 538 746 l 538 754 l 492 754 l 492 972 z m 139 503 l 139 746 l 408 746 l 408 503 z "},"ħ":{"ha":508,"x_min":0,"x_max":0,"o":"m 49 0 l 129 0 l 129 565 b 269 696 153 643 208 696 b 385 544 336 696 385 633 l 385 0 l 465 0 l 465 510 b 300 722 465 639 393 722 b 132 590 229 722 169 674 l 129 590 l 129 853 l 279 853 l 279 861 l 129 861 l 129 1000 l 49 1000 l 49 861 l -15 861 l -15 853 l 49 853 z "},"Ĩ":{"ha":192,"x_min":0,"x_max":0,"o":"m 225 1214 l 217 1214 l 217 1158 b 171 1082 217 1106 204 1082 b 106 1139 143 1082 125 1099 l 101 1150 b 31 1218 81 1197 60 1218 b -33 1082 -12 1218 -33 1171 l -33 1032 l -25 1032 l -25 1083 b 18 1164 -25 1140 -14 1164 b 78 1111 43 1164 60 1149 l 82 1101 b 158 1028 106 1050 128 1028 b 225 1158 201 1028 225 1074 z m 54 972 l 54 0 l 138 0 l 138 972 z "},"ĩ":{"ha":201,"x_min":0,"x_max":0,"o":"m 231 951 l 222 951 l 222 894 b 176 818 222 842 210 818 b 111 876 147 818 131 835 l 107 888 b 35 956 86 935 64 956 b -29 818 -8 956 -29 908 l -29 767 l -21 767 l -21 819 b 24 901 -21 876 -10 901 b 83 849 49 901 65 886 l 88 838 b 163 764 110 785 132 764 b 231 894 206 764 231 810 z m 61 708 l 61 0 l 142 0 l 142 708 z "},"Ī":{"ha":192,"x_min":0,"x_max":0,"o":"m 233 1125 l -42 1125 l -42 1117 l 233 1117 z m 54 972 l 54 0 l 138 0 l 138 972 z "},"ī":{"ha":201,"x_min":0,"x_max":0,"o":"m 239 861 l -36 861 l -36 853 l 239 853 z m 61 708 l 61 0 l 142 0 l 142 708 z "},"Ĭ":{"ha":192,"x_min":0,"x_max":0,"o":"m -49 1218 b 96 1028 -49 1100 -3 1028 b 240 1218 194 1028 240 1100 l 232 1218 b 96 1075 232 1143 197 1075 b -40 1218 -6 1075 -40 1143 z m 54 972 l 54 0 l 138 0 l 138 972 z "},"ĭ":{"ha":201,"x_min":0,"x_max":0,"o":"m -44 954 b 101 764 -44 836 3 764 b 246 954 199 764 246 836 l 238 954 b 101 811 238 879 201 811 b -36 954 0 811 -36 879 z m 61 708 l 61 0 l 142 0 l 142 708 z "},"Į":{"ha":192,"x_min":0,"x_max":0,"o":"m 54 974 l 54 1 l 68 1 b -82 -149 -21 -17 -82 -79 b 42 -251 -82 -208 -35 -251 b 136 -233 69 -251 101 -246 l 136 -226 b 65 -239 110 -235 85 -239 b -35 -142 7 -239 -35 -194 b 118 1 -35 -72 39 0 l 138 1 l 138 974 z "},"į":{"ha":203,"x_min":0,"x_max":0,"o":"m 43 886 b 101 831 43 851 64 831 b 161 886 140 831 161 851 b 101 942 161 919 140 942 b 43 886 64 942 43 921 z m 64 708 l 64 1 l 143 1 l 143 708 z m 192 -8 b -8 -162 78 -8 -8 -81 b 115 -265 -8 -222 39 -265 b 210 -247 143 -265 175 -260 l 210 -240 b 139 -253 183 -249 158 -253 b 39 -156 81 -253 39 -208 b 192 -14 39 -86 113 -14 z "},"İ":{"ha":192,"x_min":0,"x_max":0,"o":"m 43 1125 b 96 1072 43 1094 58 1072 b 147 1125 133 1072 147 1094 b 94 1178 147 1156 132 1178 b 43 1125 57 1178 43 1156 z m 54 972 l 54 0 l 138 0 l 138 972 z "},"Ĳ":{"ha":733,"x_min":0,"x_max":0,"o":"m 597 972 l 597 163 b 461 -6 597 36 535 -6 b 319 163 388 -6 319 36 l 319 392 l 236 392 l 236 232 b 460 -14 236 56 335 -14 b 681 232 585 -14 681 56 l 681 972 z m 54 972 l 54 0 l 138 0 l 138 972 z "},"ĳ":{"ha":415,"x_min":0,"x_max":0,"o":"m 43 886 b 101 831 43 851 64 831 b 161 886 140 831 161 851 b 101 942 161 919 140 942 b 43 886 64 942 43 921 z m 257 886 b 315 831 257 851 278 831 b 374 886 351 831 374 851 b 315 942 374 921 351 942 b 257 886 278 942 257 921 z m 354 -110 l 354 708 l 275 708 l 275 -157 b 194 -282 275 -235 251 -282 b 139 -271 179 -282 161 -278 l 138 -279 b 221 -292 168 -287 196 -292 b 354 -110 306 -292 354 -236 z m 64 708 l 64 0 l 143 0 l 143 708 z "},"Ĵ":{"ha":511,"x_min":0,"x_max":0,"o":"m 306 1029 l 411 1138 l 414 1138 l 522 1029 l 531 1029 l 417 1219 l 408 1219 l 297 1029 z m 374 972 l 374 164 b 238 -6 374 38 311 -6 b 96 164 164 -6 96 38 l 96 393 l 13 393 l 13 233 b 236 -14 13 56 111 -14 b 457 233 361 -14 457 57 l 457 972 z "},"ĵ":{"ha":203,"x_min":0,"x_max":0,"o":"m -10 765 l 97 874 l 100 874 l 208 765 l 217 765 l 103 956 l 94 956 l -18 765 z m 140 -110 l 140 710 l 60 710 l 60 -157 b -21 -281 60 -235 36 -281 b -76 -271 -36 -281 -53 -278 l -78 -279 b 7 -292 -46 -287 -18 -292 b 140 -110 92 -292 140 -235 z "},"Ķ":{"ha":532,"x_min":0,"x_max":0,"o":"m 138 974 l 54 974 l 54 0 l 138 0 l 138 493 l 160 493 l 433 0 l 521 0 l 228 508 l 468 974 l 396 974 l 160 501 l 138 501 z m 233 -246 l 249 -246 l 318 -56 l 243 -56 z "},"ķ":{"ha":449,"x_min":0,"x_max":0,"o":"m 129 1001 l 50 1001 l 50 0 l 129 0 l 129 363 l 132 363 l 361 0 l 444 0 l 193 382 l 421 710 l 354 710 l 132 383 l 129 383 z m 183 -246 l 200 -246 l 268 -56 l 194 -56 z "},"ĸ":{"ha":428,"x_min":0,"x_max":0,"o":"m 129 708 l 50 708 l 50 0 l 129 0 l 129 363 l 132 363 l 340 0 l 424 0 l 193 382 l 400 708 l 333 708 l 132 383 l 129 383 z "},"Ĺ":{"ha":406,"x_min":0,"x_max":0,"o":"m 89 1028 l 193 1218 l 128 1218 l 81 1028 z m 56 972 l 56 0 l 396 0 l 396 8 l 139 8 l 139 972 z "},"ĺ":{"ha":189,"x_min":0,"x_max":0,"o":"m 88 1056 l 193 1246 l 126 1246 l 79 1056 z m 54 0 l 135 0 l 135 1000 l 54 1000 z "},"Ļ":{"ha":406,"x_min":0,"x_max":0,"o":"m 56 972 l 56 0 l 396 0 l 396 8 l 139 8 l 139 972 z m 183 -246 l 199 -246 l 268 -56 l 193 -56 z "},"ļ":{"ha":189,"x_min":0,"x_max":0,"o":"m 54 0 l 135 0 l 135 1000 l 54 1000 z m 46 -246 l 63 -246 l 132 -56 l 57 -56 z "},"Ľ":{"ha":410,"x_min":0,"x_max":0,"o":"m 56 972 l 56 0 l 396 0 l 396 8 l 139 8 l 139 972 z m 299 639 l 315 639 l 404 972 l 336 972 z "},"ľ":{"ha":189,"x_min":0,"x_max":0,"o":"m 54 0 l 135 0 l 135 1000 l 54 1000 z m 188 667 l 204 667 l 293 1000 l 226 1000 z "},"Ŀ":{"ha":406,"x_min":0,"x_max":0,"o":"m 56 972 l 56 0 l 396 0 l 396 8 l 139 8 l 139 972 z m 285 501 b 338 449 285 471 300 449 b 389 500 375 449 389 471 b 336 554 389 531 374 554 b 285 501 299 554 285 532 z "},"ŀ":{"ha":189,"x_min":0,"x_max":0,"o":"m 54 0 l 135 0 l 135 1000 l 54 1000 z m 190 467 b 243 414 190 436 206 414 b 294 465 281 414 294 436 b 243 519 294 496 281 519 b 190 467 206 519 190 497 z "},"Ń":{"ha":549,"x_min":0,"x_max":0,"o":"m 268 1028 l 372 1218 l 307 1218 l 260 1028 z m 486 972 l 486 31 l 483 31 l 143 972 l 54 972 l 54 0 l 63 0 l 63 950 l 65 950 l 406 0 l 494 0 l 494 972 z "},"ń":{"ha":508,"x_min":0,"x_max":0,"o":"m 253 763 l 357 953 l 292 953 l 243 763 z m 49 0 l 129 0 l 129 565 b 269 696 151 643 207 696 b 385 544 336 696 385 633 l 385 0 l 465 0 l 465 510 b 300 722 465 639 393 722 b 131 590 229 722 168 674 l 129 590 l 129 708 l 49 708 z "},"Ņ":{"ha":549,"x_min":0,"x_max":0,"o":"m 486 972 l 486 31 l 483 31 l 143 972 l 54 972 l 54 0 l 63 0 l 63 950 l 65 950 l 406 0 l 494 0 l 494 972 z m 226 -246 l 242 -246 l 311 -56 l 236 -56 z "},"ņ":{"ha":508,"x_min":0,"x_max":0,"o":"m 49 0 l 129 0 l 129 565 b 269 696 151 643 207 696 b 385 544 336 696 385 633 l 385 0 l 465 0 l 465 510 b 300 722 465 639 393 722 b 131 590 229 722 168 674 l 129 590 l 129 708 l 49 708 z m 210 -246 l 226 -246 l 294 -56 l 221 -56 z "},"Ň":{"ha":549,"x_min":0,"x_max":0,"o":"m 382 1219 l 276 1113 l 274 1113 l 165 1219 l 157 1219 l 271 1029 l 279 1029 l 390 1219 z m 486 972 l 486 31 l 483 31 l 143 972 l 54 972 l 54 0 l 63 0 l 63 950 l 65 950 l 406 0 l 494 0 l 494 972 z "},"ň":{"ha":508,"x_min":0,"x_max":0,"o":"m 367 954 l 261 847 l 258 847 l 150 954 l 142 954 l 256 764 l 264 764 l 375 954 z m 49 0 l 129 0 l 129 565 b 269 696 151 643 207 696 b 385 544 336 696 385 633 l 385 0 l 465 0 l 465 510 b 300 722 465 639 393 722 b 131 590 229 722 168 674 l 129 590 l 129 708 l 49 708 z "},"ŉ":{"ha":508,"x_min":0,"x_max":0,"o":"m -42 639 l -25 639 l 71 972 l -3 972 z m 49 0 l 129 0 l 129 565 b 269 696 151 643 207 696 b 385 544 336 696 385 633 l 385 0 l 465 0 l 465 510 b 300 722 465 639 393 722 b 131 590 229 722 168 674 l 129 590 l 129 708 l 49 708 z "},"Ŋ":{"ha":558,"x_min":0,"x_max":0,"o":"m 492 972 l 492 43 l 489 43 l 149 972 l 60 972 l 60 0 l 68 0 l 68 950 l 71 950 l 417 0 l 417 -157 b 339 -282 417 -235 393 -282 b 285 -271 324 -282 307 -278 l 283 -279 b 367 -292 314 -287 342 -292 b 500 -110 451 -292 500 -235 l 500 972 z "},"ŋ":{"ha":508,"x_min":0,"x_max":0,"o":"m 464 -110 l 464 510 b 300 722 464 639 393 722 b 131 590 229 722 168 674 l 129 590 l 129 708 l 49 708 l 49 0 l 129 0 l 129 565 b 269 696 151 643 207 696 b 385 544 336 696 385 633 l 385 -157 b 304 -282 385 -235 361 -282 b 250 -271 289 -282 272 -278 l 247 -279 b 331 -292 279 -287 307 -292 b 464 -110 417 -292 464 -235 z "},"Ō":{"ha":574,"x_min":0,"x_max":0,"o":"m 424 1125 l 150 1125 l 150 1117 l 424 1117 z m 49 740 l 49 232 b 285 -14 49 56 157 -14 b 524 232 413 -14 524 56 l 524 740 b 285 986 524 917 413 986 b 49 740 157 986 49 917 z m 132 808 b 286 978 132 936 208 978 b 440 808 364 978 440 936 l 440 163 b 286 -6 440 36 364 -6 b 132 163 208 -6 132 36 z "},"ō":{"ha":504,"x_min":0,"x_max":0,"o":"m 390 860 l 117 860 l 117 851 l 390 851 z m 44 494 l 44 211 b 251 -15 44 78 124 -15 b 460 211 379 -15 460 78 l 460 494 b 251 721 460 629 379 721 b 44 494 124 721 44 629 z m 124 560 b 253 714 124 651 176 714 b 381 560 328 714 381 651 l 381 147 b 253 -6 381 56 329 -6 b 124 147 176 -6 124 56 z "},"Ŏ":{"ha":574,"x_min":0,"x_max":0,"o":"m 142 1218 b 288 1028 142 1100 188 1028 b 432 1218 385 1028 432 1100 l 424 1218 b 288 1075 424 1143 389 1075 b 150 1218 185 1075 150 1143 z m 49 740 l 49 233 b 286 -14 49 56 157 -14 b 524 233 414 -14 524 56 l 524 740 b 286 986 524 917 414 986 b 49 740 157 986 49 917 z m 132 808 b 286 978 132 936 208 978 b 440 808 364 978 440 936 l 440 164 b 286 -6 440 36 364 -6 b 132 164 208 -6 132 36 z "},"ŏ":{"ha":504,"x_min":0,"x_max":0,"o":"m 108 953 b 253 763 108 835 156 763 b 399 953 351 763 399 835 l 389 953 b 253 810 389 876 354 810 b 117 953 151 810 117 876 z m 44 496 l 44 213 b 251 -14 44 78 124 -14 b 460 213 379 -14 460 79 l 460 496 b 251 722 460 629 379 722 b 44 496 124 722 44 629 z m 124 560 b 253 714 124 653 176 714 b 381 560 328 714 381 653 l 381 147 b 253 -6 381 56 329 -6 b 124 147 176 -6 124 56 z "},"Ő":{"ha":574,"x_min":0,"x_max":0,"o":"m 215 1028 l 314 1218 l 258 1218 l 207 1028 z m 338 1028 l 436 1218 l 381 1218 l 329 1028 z m 49 740 l 49 232 b 285 -14 49 56 157 -14 b 524 232 413 -14 524 56 l 524 740 b 285 986 524 917 413 986 b 49 740 157 986 49 917 z m 132 808 b 286 978 132 936 208 978 b 440 808 364 978 440 936 l 440 163 b 286 -6 440 36 364 -6 b 132 163 208 -6 132 36 z "},"ő":{"ha":504,"x_min":0,"x_max":0,"o":"m 182 763 l 281 953 l 225 953 l 174 763 z m 304 763 l 403 953 l 347 953 l 296 763 z m 44 494 l 44 211 b 251 -15 44 78 124 -15 b 460 211 379 -15 460 78 l 460 494 b 251 721 460 629 379 721 b 44 494 124 721 44 629 z m 124 560 b 253 714 124 651 176 714 b 381 560 328 714 381 651 l 381 147 b 253 -6 381 56 329 -6 b 124 147 176 -6 124 56 z "},"Ŕ":{"ha":563,"x_min":0,"x_max":0,"o":"m 258 1028 l 363 1218 l 297 1218 l 250 1028 z m 54 972 l 54 0 l 138 0 l 138 453 l 264 453 b 419 282 363 453 419 390 l 419 199 b 433 1 419 122 419 54 l 517 1 b 503 199 506 44 503 96 l 503 221 b 317 456 503 347 442 433 l 317 458 b 503 704 443 481 503 567 l 503 711 b 264 972 503 878 413 972 z m 138 964 l 264 964 b 419 781 363 964 419 897 l 419 643 b 264 461 419 528 363 461 l 138 461 z "},"ŕ":{"ha":353,"x_min":0,"x_max":0,"o":"m 190 764 l 294 954 l 229 954 l 181 764 z m 129 708 l 50 708 l 50 0 l 129 0 l 129 410 b 314 654 129 556 188 654 b 343 651 324 654 333 654 l 343 719 b 318 722 335 722 326 722 b 133 522 210 722 160 629 l 129 521 z "},"Ŗ":{"ha":563,"x_min":0,"x_max":0,"o":"m 54 972 l 54 0 l 138 0 l 138 453 l 264 453 b 419 282 363 453 419 390 l 419 199 b 433 0 419 121 419 54 l 517 0 b 503 199 506 44 503 96 l 503 221 b 317 456 503 347 442 433 l 317 458 b 503 704 443 481 503 567 l 503 711 b 264 972 503 878 413 972 z m 138 964 l 264 964 b 419 781 363 964 419 897 l 419 643 b 264 461 419 528 363 461 l 138 461 z m 239 -246 l 254 -246 l 324 -56 l 249 -56 z "},"ŗ":{"ha":353,"x_min":0,"x_max":0,"o":"m 129 708 l 50 708 l 50 0 l 129 0 l 129 410 b 314 654 129 556 188 654 b 343 651 324 654 333 654 l 343 719 b 318 722 335 722 326 722 b 133 522 210 722 160 629 l 129 522 z m 42 -246 l 58 -246 l 126 -56 l 53 -56 z "},"Ř":{"ha":563,"x_min":0,"x_max":0,"o":"m 374 1219 l 268 1111 l 265 1111 l 157 1219 l 149 1219 l 263 1029 l 271 1029 l 382 1219 z m 54 972 l 54 0 l 138 0 l 138 453 l 264 453 b 419 282 363 453 419 390 l 419 199 b 433 1 419 122 419 54 l 517 1 b 503 199 506 44 503 96 l 503 221 b 317 456 503 347 442 433 l 317 458 b 503 704 443 481 503 567 l 503 711 b 264 972 503 878 413 972 z m 138 964 l 264 964 b 419 781 363 964 419 897 l 419 643 b 264 461 419 528 363 461 l 138 461 z "},"ř":{"ha":353,"x_min":0,"x_max":0,"o":"m 304 956 l 199 847 l 196 847 l 88 956 l 78 956 l 193 765 l 201 765 l 313 956 z m 129 708 l 50 708 l 50 0 l 129 0 l 129 410 b 314 654 129 556 188 654 b 343 651 324 654 333 654 l 343 719 b 318 722 335 722 326 722 b 133 522 210 722 160 629 l 129 521 z "},"Ś":{"ha":574,"x_min":0,"x_max":0,"o":"m 279 1028 l 385 1218 l 318 1218 l 271 1028 z m 519 607 l 519 739 b 285 986 519 894 432 986 b 54 739 140 986 54 894 l 54 715 b 219 475 54 585 104 513 l 289 453 b 442 275 400 417 442 368 l 442 164 b 286 -6 442 57 383 -6 b 132 164 189 -6 132 57 l 132 365 l 49 365 l 49 233 b 285 -14 49 78 136 -14 b 525 233 435 -14 525 79 l 525 264 b 351 506 525 396 474 465 l 288 525 b 138 703 175 563 138 610 l 138 808 b 286 978 138 915 193 978 b 436 808 381 978 436 915 l 436 607 z "},"ś":{"ha":504,"x_min":0,"x_max":0,"o":"m 244 763 l 350 953 l 283 953 l 238 763 z m 456 443 l 456 500 b 251 722 456 632 378 722 b 50 521 129 722 50 636 l 50 514 b 190 343 50 424 96 369 l 264 321 b 381 194 351 299 381 268 l 381 128 b 251 -4 381 53 325 -4 b 126 149 175 -4 126 56 l 126 265 l 46 265 l 46 208 b 250 -14 46 78 125 -14 b 461 183 374 -14 461 75 l 461 199 b 311 372 461 293 415 343 l 242 394 b 131 515 161 415 131 447 l 131 579 b 251 714 131 661 178 714 b 375 561 329 714 375 657 l 375 443 z "},"Ŝ":{"ha":574,"x_min":0,"x_max":0,"o":"m 176 1029 l 283 1136 l 286 1136 l 394 1029 l 403 1029 l 289 1219 l 281 1219 l 168 1029 z m 519 607 l 519 739 b 285 986 519 894 432 986 b 54 739 140 986 54 894 l 54 715 b 219 475 54 585 104 513 l 289 453 b 442 275 400 417 442 368 l 442 164 b 286 -6 442 57 383 -6 b 132 164 189 -6 132 57 l 132 365 l 49 365 l 49 233 b 285 -14 49 78 136 -14 b 525 233 435 -14 525 79 l 525 264 b 351 506 525 396 474 465 l 288 525 b 138 703 175 563 138 610 l 138 808 b 286 978 138 915 193 978 b 436 808 381 978 436 915 l 436 607 z "},"ŝ":{"ha":504,"x_min":0,"x_max":0,"o":"m 143 764 l 249 872 l 251 872 l 360 764 l 368 764 l 254 954 l 246 954 l 135 764 z m 456 443 l 456 500 b 251 722 456 632 378 722 b 50 521 129 722 50 636 l 50 514 b 190 343 50 424 96 369 l 264 321 b 381 194 351 299 381 268 l 381 128 b 251 -4 381 53 325 -4 b 126 149 175 -4 126 56 l 126 265 l 46 265 l 46 208 b 250 -14 46 78 125 -14 b 461 183 374 -14 461 75 l 461 199 b 311 372 461 293 415 343 l 242 394 b 131 515 161 415 131 447 l 131 579 b 251 714 131 661 178 714 b 375 561 329 714 375 657 l 375 443 z "},"Ş":{"ha":574,"x_min":0,"x_max":0,"o":"m 519 607 l 519 739 b 285 986 519 894 432 986 b 54 739 140 986 54 894 l 54 715 b 219 475 54 585 104 513 l 289 453 b 442 275 401 417 442 368 l 442 164 b 286 -4 442 58 383 -4 b 132 164 189 -4 132 58 l 132 365 l 49 365 l 49 233 b 285 -14 49 78 136 -14 b 321 -12 297 -14 308 -14 l 310 -64 b 475 -153 418 -64 475 -99 b 338 -256 475 -208 413 -256 b 271 -247 318 -256 294 -253 l 271 -256 b 353 -265 300 -262 328 -265 b 524 -154 450 -265 524 -215 b 319 -56 524 -96 454 -56 l 329 -11 b 524 233 451 6 524 94 l 524 264 b 351 506 524 396 472 465 l 288 525 b 138 703 175 563 138 610 l 138 808 b 286 978 138 915 193 978 b 436 808 381 978 436 915 l 436 607 z "},"ş":{"ha":504,"x_min":0,"x_max":0,"o":"m 456 443 l 456 500 b 251 722 456 632 378 722 b 50 521 129 722 50 636 l 50 514 b 192 343 50 424 96 369 l 265 321 b 381 196 351 299 381 268 l 381 128 b 251 -4 381 53 325 -4 b 126 149 176 -4 126 56 l 126 265 l 46 265 l 46 208 b 244 -14 46 81 122 -11 l 235 -64 b 400 -153 344 -64 400 -99 b 263 -256 400 -208 338 -256 b 196 -247 243 -256 219 -253 l 196 -256 b 278 -265 225 -262 253 -265 b 449 -154 375 -265 449 -215 b 244 -56 449 -96 379 -56 l 253 -14 b 461 183 375 -12 461 76 l 461 199 b 313 372 461 293 417 343 l 242 394 b 131 515 161 415 131 447 l 131 579 b 253 714 131 661 179 714 b 375 561 329 714 375 657 l 375 443 z "},"Ţ":{"ha":461,"x_min":0,"x_max":0,"o":"m 450 972 l 13 972 l 13 964 l 189 964 l 189 0 l 226 0 l 215 -51 b 379 -140 324 -51 379 -87 b 243 -244 379 -196 318 -244 b 178 -235 224 -244 200 -242 l 178 -243 b 258 -254 206 -250 233 -254 b 429 -143 356 -254 429 -204 b 225 -44 429 -83 358 -44 l 235 0 l 272 0 l 272 964 l 450 964 z "},"ţ":{"ha":336,"x_min":0,"x_max":0,"o":"m 11 700 l 88 700 l 89 164 b 206 -11 89 50 138 1 l 194 -64 b 358 -153 303 -64 358 -99 b 222 -256 358 -208 297 -256 b 156 -247 203 -256 179 -253 l 156 -256 b 238 -265 185 -262 213 -265 b 408 -154 335 -265 408 -215 b 204 -56 408 -96 338 -56 l 214 -11 b 239 -14 222 -12 231 -14 b 335 1 268 -14 299 -8 l 332 10 b 265 -3 306 1 285 -3 b 168 121 213 -3 168 29 l 168 700 l 328 700 l 328 708 l 168 708 l 168 865 l 89 860 l 89 708 l 11 708 z "},"Ť":{"ha":461,"x_min":0,"x_max":0,"o":"m 339 1219 l 233 1113 l 231 1113 l 122 1219 l 114 1219 l 228 1029 l 236 1029 l 347 1219 z m 450 972 l 13 972 l 13 964 l 189 964 l 189 0 l 272 0 l 272 964 l 450 964 z "},"ť":{"ha":336,"x_min":0,"x_max":0,"o":"m 283 757 l 300 757 l 368 986 l 300 986 z m 11 700 l 88 700 l 89 164 b 239 -14 89 31 156 -14 b 335 0 268 -14 299 -8 l 332 8 b 265 -4 306 0 285 -4 b 168 119 213 -4 168 28 l 168 700 l 328 700 l 328 708 l 168 708 l 168 865 l 89 858 l 89 708 l 11 708 z "},"Ŧ":{"ha":461,"x_min":0,"x_max":0,"o":"m 450 972 l 13 972 l 13 964 l 189 964 l 189 474 l 83 474 l 83 465 l 189 465 l 189 0 l 272 0 l 272 465 l 379 465 l 379 474 l 272 474 l 272 964 l 450 964 z "},"ŧ":{"ha":336,"x_min":0,"x_max":0,"o":"m 11 700 l 88 700 l 89 426 l 10 426 l 10 418 l 88 418 l 89 164 b 239 -14 89 32 156 -14 b 335 0 268 -14 299 -8 l 332 8 b 265 -4 306 0 285 -4 b 168 119 213 -4 168 28 l 168 418 l 328 418 l 328 426 l 168 426 l 168 700 l 328 700 l 328 708 l 168 708 l 168 865 l 89 860 l 89 708 l 11 708 z "},"Ũ":{"ha":553,"x_min":0,"x_max":0,"o":"m 411 1214 l 403 1214 l 403 1158 b 356 1082 403 1106 389 1082 b 292 1139 328 1082 310 1099 l 286 1150 b 215 1218 267 1197 244 1218 b 151 1082 171 1218 151 1171 l 151 1032 l 160 1032 l 160 1083 b 203 1164 160 1140 171 1164 b 263 1111 228 1164 244 1149 l 268 1101 b 343 1028 290 1050 313 1028 b 411 1158 386 1028 411 1074 z m 49 972 l 49 232 b 275 -15 49 56 153 -15 b 503 232 399 -15 503 56 l 503 972 l 421 972 l 421 163 b 276 -6 421 36 349 -6 b 132 163 204 -6 132 36 l 132 972 z "},"ũ":{"ha":504,"x_min":0,"x_max":0,"o":"m 381 950 l 372 950 l 372 893 b 326 818 372 842 360 818 b 263 875 299 818 281 833 l 258 886 b 189 954 238 933 215 954 b 125 818 144 954 125 906 l 125 767 l 133 767 l 133 818 b 176 900 133 875 144 900 b 233 847 200 900 217 885 l 239 836 b 314 763 261 785 283 763 b 381 893 357 763 381 808 z m 460 708 l 379 708 l 379 140 b 238 13 353 64 299 13 b 125 165 171 13 125 75 l 125 708 l 44 708 l 44 200 b 206 -14 44 71 115 -14 b 376 118 275 -14 336 35 l 379 118 l 379 0 l 460 0 z "},"Ū":{"ha":553,"x_min":0,"x_max":0,"o":"m 419 1125 l 144 1125 l 144 1117 l 419 1117 z m 49 972 l 49 232 b 275 -14 49 56 153 -14 b 503 232 399 -14 503 56 l 503 972 l 421 972 l 421 163 b 276 -6 421 36 349 -6 b 132 163 204 -6 132 36 l 132 972 z "},"ū":{"ha":504,"x_min":0,"x_max":0,"o":"m 390 860 l 117 860 l 117 851 l 390 851 z m 460 708 l 379 708 l 379 140 b 239 13 353 63 299 13 b 125 164 172 13 125 74 l 125 708 l 44 708 l 44 199 b 207 -14 44 69 114 -14 b 376 118 275 -14 336 33 l 379 118 l 379 0 l 460 0 z "},"Ŭ":{"ha":553,"x_min":0,"x_max":0,"o":"m 136 1218 b 281 1028 136 1100 182 1028 b 426 1218 379 1028 426 1100 l 417 1218 b 281 1075 417 1143 382 1075 b 144 1218 179 1075 144 1143 z m 49 972 l 49 233 b 275 -14 49 56 153 -14 b 503 233 397 -14 503 56 l 503 972 l 419 972 l 419 164 b 275 -6 419 36 347 -6 b 132 164 204 -6 132 36 l 132 972 z "},"ŭ":{"ha":504,"x_min":0,"x_max":0,"o":"m 108 953 b 254 763 108 835 156 763 b 399 953 351 763 399 835 l 389 953 b 254 810 389 876 354 810 b 117 953 151 810 117 876 z m 460 708 l 379 708 l 379 142 b 239 13 354 64 299 13 b 125 164 172 13 125 75 l 125 708 l 44 708 l 44 199 b 207 -14 44 69 114 -14 b 376 118 275 -14 336 33 l 379 118 l 379 0 l 460 0 z "},"Ů":{"ha":553,"x_min":0,"x_max":0,"o":"m 176 1124 b 281 1032 176 1064 217 1032 b 386 1124 346 1032 386 1064 b 279 1215 386 1182 344 1215 b 176 1124 217 1215 176 1183 z m 189 1124 b 279 1203 189 1175 225 1203 b 372 1124 336 1203 372 1175 b 281 1044 372 1072 338 1044 b 189 1124 225 1044 189 1072 z m 49 972 l 49 233 b 275 -14 49 56 151 -14 b 503 233 399 -14 503 57 l 503 972 l 419 972 l 419 164 b 276 -6 419 38 347 -6 b 132 164 204 -6 132 38 l 132 972 z "},"ů":{"ha":504,"x_min":0,"x_max":0,"o":"m 149 858 b 254 767 149 799 190 767 b 358 858 318 767 358 799 b 253 950 358 917 317 950 b 149 858 190 950 149 918 z m 163 858 b 253 938 163 910 199 938 b 344 858 308 938 344 908 b 254 779 344 807 310 779 b 163 858 199 779 163 807 z m 460 708 l 379 708 l 379 142 b 239 13 354 64 299 13 b 125 164 172 13 125 75 l 125 708 l 44 708 l 44 199 b 206 -14 44 69 115 -14 b 376 118 275 -14 336 35 l 379 118 l 379 0 l 460 0 z "},"Ű":{"ha":553,"x_min":0,"x_max":0,"o":"m 211 1028 l 310 1218 l 254 1218 l 203 1028 z m 333 1028 l 432 1218 l 376 1218 l 325 1028 z m 49 972 l 49 232 b 275 -14 49 56 151 -14 b 503 232 397 -14 503 56 l 503 972 l 419 972 l 419 163 b 275 -6 419 36 347 -6 b 132 163 203 -6 132 36 l 132 972 z "},"ű":{"ha":504,"x_min":0,"x_max":0,"o":"m 183 763 l 282 953 l 226 953 l 175 763 z m 306 763 l 404 953 l 349 953 l 297 763 z m 460 708 l 379 708 l 379 142 b 239 13 354 64 299 13 b 125 164 172 13 125 74 l 125 708 l 44 708 l 44 199 b 207 -14 44 69 115 -14 b 376 118 275 -14 336 33 l 379 118 l 379 0 l 460 0 z "},"Ų":{"ha":553,"x_min":0,"x_max":0,"o":"m 49 972 l 49 233 b 264 -14 49 61 146 -10 b 144 -154 192 -39 144 -94 b 268 -257 144 -214 192 -257 b 363 -240 296 -257 328 -251 l 363 -232 b 292 -246 336 -240 311 -246 b 192 -149 233 -246 192 -201 b 301 -12 192 -92 240 -33 b 503 233 413 -3 503 69 l 503 972 l 419 972 l 419 164 b 276 -6 419 38 349 -6 b 132 164 204 -6 132 38 l 132 972 z "},"ų":{"ha":504,"x_min":0,"x_max":0,"o":"m 460 708 l 379 708 l 379 143 b 239 13 354 64 299 13 b 125 165 172 13 125 75 l 125 708 l 44 708 l 44 200 b 207 -14 44 71 115 -14 b 376 118 275 -14 336 35 l 379 118 l 379 0 l 392 0 b 243 -149 304 -17 243 -79 b 365 -251 243 -208 290 -251 b 460 -233 393 -251 425 -246 l 460 -226 b 390 -239 433 -235 408 -239 b 290 -142 332 -239 290 -194 b 439 0 290 -74 361 -3 l 460 0 z "},"Ŵ":{"ha":756,"x_min":0,"x_max":0,"o":"m 299 1029 l 406 1138 l 408 1138 l 517 1029 l 525 1029 l 411 1219 l 403 1219 l 290 1029 z m 11 972 l 165 0 l 239 0 l 376 925 l 379 925 l 526 0 l 600 0 l 743 972 l 732 972 l 599 107 l 597 107 l 456 972 l 372 972 l 239 107 l 236 107 l 94 972 z "},"ŵ":{"ha":738,"x_min":0,"x_max":0,"o":"m 293 765 l 399 874 l 401 874 l 510 765 l 518 765 l 404 956 l 396 956 l 285 765 z m 10 708 l 153 0 l 221 0 l 367 672 l 369 672 l 504 0 l 574 0 l 728 708 l 717 708 l 575 90 l 572 90 l 443 708 l 363 708 l 222 90 l 219 90 l 90 708 z "},"Ŷ":{"ha":444,"x_min":0,"x_max":0,"o":"m 114 1029 l 221 1138 l 224 1138 l 332 1029 l 340 1029 l 226 1219 l 218 1219 l 106 1029 z m 11 972 l 179 315 l 179 0 l 263 0 l 263 315 l 432 972 l 421 972 l 258 349 l 256 349 l 96 972 z "},"ŷ":{"ha":508,"x_min":0,"x_max":0,"o":"m 144 764 l 250 872 l 253 872 l 363 764 l 371 764 l 257 954 l 249 954 l 136 764 z m 465 708 l 385 708 l 385 144 b 243 13 360 65 304 13 b 131 164 178 13 131 75 l 131 708 l 50 708 l 50 199 b 211 -14 50 69 119 -14 b 382 118 281 -14 342 35 l 385 118 l 385 -129 b 263 -283 385 -222 336 -283 b 140 -132 190 -283 140 -222 l 140 -61 l 60 -61 l 60 -75 b 263 -292 60 -206 140 -292 b 465 -72 385 -292 465 -206 z "},"Ź":{"ha":497,"x_min":0,"x_max":0,"o":"m 243 1028 l 347 1218 l 282 1218 l 235 1028 z m 46 972 l 46 964 l 372 964 l 372 961 l 28 8 l 28 0 l 469 0 l 469 8 l 115 8 l 114 11 l 461 964 l 461 972 z "},"ź":{"ha":451,"x_min":0,"x_max":0,"o":"m 219 763 l 324 953 l 258 953 l 211 763 z m 418 0 l 418 8 l 118 8 l 117 11 l 400 700 l 400 708 l 49 708 l 49 700 l 314 700 l 315 697 l 33 8 l 33 0 z "},"Ż":{"ha":497,"x_min":0,"x_max":0,"o":"m 199 1125 b 250 1072 199 1094 213 1072 b 301 1124 288 1072 301 1094 b 250 1178 301 1154 288 1178 b 199 1125 213 1178 199 1156 z m 46 972 l 46 964 l 372 964 l 374 961 l 28 8 l 28 0 l 471 0 l 471 8 l 115 8 l 114 11 l 461 964 l 461 972 z "},"ż":{"ha":451,"x_min":0,"x_max":0,"o":"m 174 860 b 225 807 174 829 188 807 b 276 860 263 807 276 829 b 225 913 276 890 263 913 b 174 860 188 913 174 890 z m 419 0 l 419 8 l 119 8 l 118 11 l 401 700 l 401 708 l 49 708 l 49 700 l 315 700 l 317 697 l 33 8 l 33 0 z "},"ſ":{"ha":778,"x_min":0,"x_max":0,"o":"m 60 0 l 718 0 l 718 972 l 60 972 z m 171 903 l 607 903 l 389 543 z m 424 486 l 649 857 l 649 115 z m 129 857 l 354 486 l 129 115 z m 389 429 l 607 69 l 171 69 z "},"̦":{"ha":206,"x_min":0,"x_max":0,"o":"m 61 -204 l 76 -204 l 146 -14 l 71 -14 z "},"ȷ":{"ha":203,"x_min":0,"x_max":0,"o":"m 140 -110 l 140 708 l 60 708 l 60 -157 b -21 -282 60 -235 36 -282 b -76 -271 -36 -282 -53 -278 l -78 -279 b 7 -292 -46 -287 -18 -292 b 140 -110 92 -292 140 -235 z "}}}
